M48
; DRILL file {KiCad (5.1.10)-1} date 08/10/21 10:59:42
; FORMAT={-:-/ absolute / inch / decimal}
; #@! TF.CreationDate,2021-08-10T10:59:42+01:00
; #@! TF.GenerationSoftware,Kicad,Pcbnew,(5.1.10)-1
; #@! TF.FileFunction,Plated,1,4,PTH
FMAT,2
INCH
T1C0.0118
T2C0.0157
T3C0.0276
T4C0.0394
T5C0.1378
%
G90
G05
T1
X3.9368Y-4.0138
X3.9685Y-4.0138
X4.0114Y-4.0138
X4.0431Y-4.0138
X4.1855Y-4.0138
X4.2171Y-4.0138
X4.5626Y-4.0138
X4.5942Y-4.0138
X4.7367Y-4.0138
X4.7683Y-4.0138
T2
X2.6437Y-3.8307
X2.6437Y-3.9488
X2.7067Y-3.8425
X2.7323Y-3.7776
X2.7343Y-3.9075
X2.7992Y-3.748
X2.7992Y-3.937
X2.8642Y-3.7756
X2.8661Y-3.9094
X2.8937Y-3.8425
X3.3125Y-4.0743
X3.5886Y-3.8307
X3.5886Y-3.9685
X3.7264Y-3.8307
X3.7264Y-3.9685
X3.8642Y-3.8307
X3.8642Y-3.9685
X4.002Y-3.8307
X4.1398Y-3.8307
X4.2579Y-4.3622
X4.2776Y-3.8307
X4.3563Y-4.5394
X4.3957Y-4.3622
X4.4154Y-3.8307
X4.4252Y-3.9488
X4.4941Y-4.5394
X4.5335Y-4.3622
X4.5531Y-3.8307
X4.6319Y-4.5394
X4.6713Y-4.3031
X4.6909Y-3.8307
X4.7697Y-4.3031
X4.7697Y-4.5394
X4.8287Y-3.8307
X4.8878Y-4.0276
X4.8878Y-4.1654
X4.9075Y-4.5394
X4.9665Y-3.8307
X5.0453Y-4.5394
X5.1043Y-3.8307
X5.1831Y-4.5394
X5.3209Y-4.3031
X5.3209Y-4.4213
X5.3209Y-4.5394
T3
X2.7618Y-4.3327
X2.7618Y-4.4311
X2.8012Y-4.2539
X2.8012Y-4.5098
X2.8406Y-4.3327
X2.8406Y-4.4311
X2.8799Y-4.2539
X2.8799Y-4.5098
X2.9193Y-4.3327
X2.9193Y-4.4311
X2.9587Y-4.2539
X2.9587Y-4.5098
X2.998Y-4.3327
X2.998Y-4.4311
X3.0374Y-4.2539
X3.0374Y-4.5098
X3.0768Y-4.3327
X3.0768Y-4.4311
X3.1161Y-4.2539
X3.1161Y-4.5098
X3.1555Y-4.3327
X3.1555Y-4.4311
X3.2736Y-4.2539
X3.2736Y-4.5098
X3.313Y-4.3327
X3.313Y-4.4311
X3.3524Y-4.2539
X3.3524Y-4.5098
X3.3917Y-4.3327
X3.3917Y-4.4311
X3.4311Y-4.2539
X3.4311Y-4.5098
X3.4705Y-4.3327
X3.4705Y-4.4311
X3.5098Y-4.2539
X3.5098Y-4.5098
X3.5492Y-4.3327
X3.5492Y-4.4311
X3.5886Y-4.2539
X3.5886Y-4.5098
X3.628Y-4.3327
X3.628Y-4.4311
X3.6673Y-4.2539
X3.6673Y-4.5098
X3.7067Y-4.3327
X3.7067Y-4.4311
X3.7461Y-4.2539
X3.7461Y-4.5098
X3.7854Y-4.3327
X3.7854Y-4.4311
X3.8248Y-4.2539
X3.8248Y-4.5098
X3.8642Y-4.3327
X3.8642Y-4.4311
X3.9035Y-4.2539
X3.9035Y-4.5098
X3.9429Y-4.3327
X3.9429Y-4.4311
X3.9823Y-4.2539
X3.9823Y-4.5098
X4.0217Y-4.3327
X4.0217Y-4.4311
X4.061Y-4.2539
X4.061Y-4.5098
T4
X3.0492Y-3.8701
X3.0492Y-3.9701
X3.1492Y-3.8701
X3.1492Y-3.9701
X3.2492Y-3.8701
X3.2492Y-3.9701
X3.3492Y-3.8701
X3.3492Y-3.9701
X3.4492Y-3.8701
X3.4492Y-3.9701
X5.1752Y-3.8701
X5.1752Y-3.9701
X5.1752Y-4.0701
X5.2752Y-3.8701
X5.2752Y-3.9701
X5.2752Y-4.0701
X5.2752Y-4.1701
T5
X2.7992Y-3.8425
T0
M30
