%TF.GenerationSoftware,KiCad,Pcbnew,(5.1.10)-1*%
%TF.CreationDate,2021-08-10T10:59:40+01:00*%
%TF.ProjectId,t9120mezz,74393132-306d-4657-9a7a-2e6b69636164,rev?*%
%TF.SameCoordinates,Original*%
%TF.FileFunction,Soldermask,Bot*%
%TF.FilePolarity,Negative*%
%FSLAX46Y46*%
G04 Gerber Fmt 4.6, Leading zero omitted, Abs format (unit mm)*
G04 Created by KiCad (PCBNEW (5.1.10)-1) date 2021-08-10 10:59:40*
%MOMM*%
%LPD*%
G01*
G04 APERTURE LIST*
%ADD10C,1.000000*%
%ADD11C,2.350000*%
%ADD12O,1.700000X1.700000*%
%ADD13C,6.500000*%
%ADD14R,0.400000X1.500000*%
G04 APERTURE END LIST*
D10*
%TO.C,J1*%
X89150000Y-108050000D03*
D11*
X104950000Y-111300000D03*
D10*
X103150000Y-108050000D03*
X103150000Y-114550000D03*
X102150000Y-110050000D03*
X102150000Y-112550000D03*
X101150000Y-108050000D03*
X101150000Y-114550000D03*
X100150000Y-110050000D03*
X100150000Y-112550000D03*
X99150000Y-108050000D03*
X99150000Y-114550000D03*
X98150000Y-110050000D03*
X98150000Y-112550000D03*
X97150000Y-108050000D03*
X97150000Y-114550000D03*
X96150000Y-110050000D03*
X96150000Y-112550000D03*
X95150000Y-108050000D03*
X95150000Y-114550000D03*
X94150000Y-110050000D03*
X94150000Y-112550000D03*
X93150000Y-108050000D03*
X93150000Y-114550000D03*
X92150000Y-110050000D03*
X92150000Y-112550000D03*
X91150000Y-108050000D03*
X91150000Y-114550000D03*
X90150000Y-110050000D03*
X90150000Y-112550000D03*
X89150000Y-114550000D03*
X88150000Y-110050000D03*
X88150000Y-112550000D03*
X87150000Y-108050000D03*
X87150000Y-114550000D03*
X86150000Y-110050000D03*
X86150000Y-112550000D03*
X85150000Y-108050000D03*
X85150000Y-114550000D03*
X84150000Y-110050000D03*
X84150000Y-112550000D03*
X83150000Y-108050000D03*
X83150000Y-114550000D03*
D11*
X81800000Y-111300000D03*
D10*
X80150000Y-112550000D03*
X79150000Y-114550000D03*
X78150000Y-112550000D03*
X77150000Y-114550000D03*
X76150000Y-112550000D03*
X75150000Y-114550000D03*
X74150000Y-112550000D03*
X73150000Y-114550000D03*
X72150000Y-112550000D03*
X71150000Y-114550000D03*
X70150000Y-112550000D03*
X80150000Y-110050000D03*
X79150000Y-108050000D03*
X78150000Y-110050000D03*
X77150000Y-108050000D03*
X76150000Y-110050000D03*
X75150000Y-108050000D03*
X74150000Y-110050000D03*
X73150000Y-108050000D03*
X72150000Y-110050000D03*
X71150000Y-108050000D03*
X70150000Y-110050000D03*
%TD*%
D12*
%TO.C,J4*%
X131450000Y-98300000D03*
X133990000Y-98300000D03*
X131450000Y-100840000D03*
X133990000Y-100840000D03*
X131450000Y-103380000D03*
X133990000Y-103380000D03*
X133990000Y-105920000D03*
%TD*%
%TO.C,J3*%
X87610000Y-98300000D03*
X87610000Y-100840000D03*
X85070000Y-98300000D03*
X85070000Y-100840000D03*
X82530000Y-98300000D03*
X82530000Y-100840000D03*
X79990000Y-98300000D03*
X79990000Y-100840000D03*
X77450000Y-98300000D03*
X77450000Y-100840000D03*
%TD*%
D13*
%TO.C,REF\u002A\u002A*%
X71100000Y-97600000D03*
%TD*%
D14*
%TO.C,J5*%
X113450000Y-100250000D03*
X114081570Y-100250000D03*
X114713140Y-100250000D03*
X115344710Y-100250000D03*
X115976280Y-100250000D03*
X116607850Y-100250000D03*
X117239420Y-100250000D03*
X117870990Y-100250000D03*
X118502560Y-100250000D03*
X119134130Y-100250000D03*
X119765700Y-100250000D03*
X120397270Y-100250000D03*
X121028840Y-100250000D03*
X121660410Y-100250000D03*
X122291980Y-100250000D03*
X122923550Y-100250000D03*
X123555120Y-100250000D03*
X124186690Y-100250000D03*
X124818260Y-100250000D03*
X125449830Y-100250000D03*
%TD*%
%TO.C,J2*%
X99450000Y-100300000D03*
X100081570Y-100300000D03*
X100713140Y-100300000D03*
X101344710Y-100300000D03*
X101976280Y-100300000D03*
X102607850Y-100300000D03*
X103239420Y-100300000D03*
X103870990Y-100300000D03*
X104502560Y-100300000D03*
X105134130Y-100300000D03*
X105765700Y-100300000D03*
X106397270Y-100300000D03*
X107028840Y-100300000D03*
X107660410Y-100300000D03*
X108291980Y-100300000D03*
X108923550Y-100300000D03*
X109555120Y-100300000D03*
X110186690Y-100300000D03*
X110818260Y-100300000D03*
X111449830Y-100300000D03*
%TD*%
M02*
