%TF.GenerationSoftware,KiCad,Pcbnew,(5.1.6)-1*%
%TF.CreationDate,2021-07-09T16:03:55+01:00*%
%TF.ProjectId,t9120riser,74393132-3072-4697-9365-722e6b696361,rev?*%
%TF.SameCoordinates,Original*%
%TF.FileFunction,Legend,Bot*%
%TF.FilePolarity,Positive*%
%FSLAX46Y46*%
G04 Gerber Fmt 4.6, Leading zero omitted, Abs format (unit mm)*
G04 Created by KiCad (PCBNEW (5.1.6)-1) date 2021-07-09 16:03:55*
%MOMM*%
%LPD*%
G01*
G04 APERTURE LIST*
%ADD10C,0.150000*%
%ADD11C,0.180000*%
%ADD12C,0.152400*%
G04 APERTURE END LIST*
D10*
X186230952Y-103671428D02*
X185469047Y-103671428D01*
X186230952Y-98671428D02*
X185469047Y-98671428D01*
X185850000Y-99052380D02*
X185850000Y-98290476D01*
D11*
%TO.C,J3*%
X178190000Y-103770000D02*
X178190000Y-98570000D01*
X178190000Y-98570000D02*
X180850000Y-98570000D01*
X180850000Y-98570000D02*
X180850000Y-103770000D01*
X180850000Y-103770000D02*
X178190000Y-103770000D01*
X180850000Y-102820000D02*
X186850000Y-102820000D01*
X186850000Y-102820000D02*
X186850000Y-102060000D01*
X186850000Y-102060000D02*
X180850000Y-102060000D01*
X180850000Y-102760000D02*
X186850000Y-102760000D01*
X180850000Y-102640000D02*
X186850000Y-102640000D01*
X180850000Y-102520000D02*
X186850000Y-102520000D01*
X180850000Y-102400000D02*
X186850000Y-102400000D01*
X180850000Y-102280000D02*
X186850000Y-102280000D01*
X180850000Y-102160000D02*
X186850000Y-102160000D01*
X177860000Y-102820000D02*
X178190000Y-102820000D01*
X177860000Y-102060000D02*
X178190000Y-102060000D01*
X178190000Y-101170000D02*
X180850000Y-101170000D01*
X180850000Y-100280000D02*
X186850000Y-100280000D01*
X186850000Y-100280000D02*
X186850000Y-99520000D01*
X186850000Y-99520000D02*
X180850000Y-99520000D01*
X177792929Y-100280000D02*
X178190000Y-100280000D01*
X177792929Y-99520000D02*
X178190000Y-99520000D01*
X175480000Y-102440000D02*
X175480000Y-103710000D01*
X175480000Y-103710000D02*
X176750000Y-103710000D01*
%TO.C,J4*%
X172795000Y-118450000D02*
X172795000Y-118450000D01*
X172695000Y-118450000D02*
X172695000Y-118450000D01*
X163451000Y-120200000D02*
X169250000Y-120200000D01*
X163451000Y-98200000D02*
X169250000Y-98200000D01*
X172795000Y-118450000D02*
G75*
G03*
X172695000Y-118450000I-50000J0D01*
G01*
X172695000Y-118450000D02*
G75*
G03*
X172795000Y-118450000I50000J0D01*
G01*
%TO.C,J3*%
D12*
X186067142Y-105944714D02*
X186067142Y-105182714D01*
X185813142Y-105727000D01*
X185559142Y-105182714D01*
X185559142Y-105944714D01*
X185196285Y-105872142D02*
X185160000Y-105908428D01*
X185196285Y-105944714D01*
X185232571Y-105908428D01*
X185196285Y-105872142D01*
X185196285Y-105944714D01*
X184869714Y-105255285D02*
X184833428Y-105219000D01*
X184760857Y-105182714D01*
X184579428Y-105182714D01*
X184506857Y-105219000D01*
X184470571Y-105255285D01*
X184434285Y-105327857D01*
X184434285Y-105400428D01*
X184470571Y-105509285D01*
X184906000Y-105944714D01*
X184434285Y-105944714D01*
X183563428Y-105727000D02*
X183200571Y-105727000D01*
X183636000Y-105944714D02*
X183382000Y-105182714D01*
X183128000Y-105944714D01*
X182438571Y-105872142D02*
X182474857Y-105908428D01*
X182583714Y-105944714D01*
X182656285Y-105944714D01*
X182765142Y-105908428D01*
X182837714Y-105835857D01*
X182874000Y-105763285D01*
X182910285Y-105618142D01*
X182910285Y-105509285D01*
X182874000Y-105364142D01*
X182837714Y-105291571D01*
X182765142Y-105219000D01*
X182656285Y-105182714D01*
X182583714Y-105182714D01*
X182474857Y-105219000D01*
X182438571Y-105255285D01*
X182220857Y-105182714D02*
X181785428Y-105182714D01*
X182003142Y-105944714D02*
X182003142Y-105182714D01*
X181531428Y-105944714D02*
X181531428Y-105182714D01*
X181277428Y-105182714D02*
X181023428Y-105944714D01*
X180769428Y-105182714D01*
X180515428Y-105944714D02*
X180515428Y-105182714D01*
X180261428Y-105182714D02*
X179826000Y-105182714D01*
X180043714Y-105944714D02*
X180043714Y-105182714D01*
X179426857Y-105581857D02*
X179426857Y-105944714D01*
X179680857Y-105182714D02*
X179426857Y-105581857D01*
X179172857Y-105182714D01*
X177975428Y-105944714D02*
X178338285Y-105944714D01*
X178338285Y-105182714D01*
X177721428Y-105545571D02*
X177467428Y-105545571D01*
X177358571Y-105944714D02*
X177721428Y-105944714D01*
X177721428Y-105182714D01*
X177358571Y-105182714D01*
X177032000Y-105944714D02*
X177032000Y-105182714D01*
X176850571Y-105182714D01*
X176741714Y-105219000D01*
X176669142Y-105291571D01*
X176632857Y-105364142D01*
X176596571Y-105509285D01*
X176596571Y-105618142D01*
X176632857Y-105763285D01*
X176669142Y-105835857D01*
X176741714Y-105908428D01*
X176850571Y-105944714D01*
X177032000Y-105944714D01*
%TD*%
M02*
