%TF.GenerationSoftware,KiCad,Pcbnew,(5.1.6)-1*%
%TF.CreationDate,2021-07-09T16:03:55+01:00*%
%TF.ProjectId,t9120riser,74393132-3072-4697-9365-722e6b696361,rev?*%
%TF.SameCoordinates,Original*%
%TF.FileFunction,Legend,Top*%
%TF.FilePolarity,Positive*%
%FSLAX46Y46*%
G04 Gerber Fmt 4.6, Leading zero omitted, Abs format (unit mm)*
G04 Created by KiCad (PCBNEW (5.1.6)-1) date 2021-07-09 16:03:55*
%MOMM*%
%LPD*%
G01*
G04 APERTURE LIST*
%ADD10C,0.180000*%
%ADD11C,0.152400*%
G04 APERTURE END LIST*
D10*
%TO.C,U1*%
X99365000Y-113010000D02*
X98640000Y-113010000D01*
X98640000Y-113010000D02*
X98640000Y-112285000D01*
X102135000Y-108790000D02*
X102860000Y-108790000D01*
X102860000Y-108790000D02*
X102860000Y-109515000D01*
X99365000Y-108790000D02*
X98640000Y-108790000D01*
X98640000Y-108790000D02*
X98640000Y-109515000D01*
X102135000Y-113010000D02*
X102860000Y-113010000D01*
%TO.C,R2*%
X155040000Y-101450279D02*
X155040000Y-101124721D01*
X156060000Y-101450279D02*
X156060000Y-101124721D01*
%TO.C,R1*%
X98040000Y-106912779D02*
X98040000Y-106587221D01*
X99060000Y-106912779D02*
X99060000Y-106587221D01*
%TO.C,J7*%
X137316500Y-126170000D02*
X137316500Y-118870000D01*
X140301000Y-129150000D02*
X142520000Y-129150000D01*
X140301000Y-129150000D02*
X137316500Y-126170000D01*
X142520000Y-118870000D02*
X137320000Y-118870000D01*
X142520000Y-129150000D02*
X142520000Y-118870000D01*
%TO.C,J2*%
X153300000Y-102350000D02*
X153300000Y-94850000D01*
X97300000Y-102350000D02*
X97300000Y-94850000D01*
X96724540Y-97342000D02*
G75*
G03*
X96724540Y-97342000I-73540J0D01*
G01*
%TO.C,J6*%
X96140000Y-124070000D02*
X96140000Y-118870000D01*
X83320000Y-124070000D02*
X96140000Y-124070000D01*
X83320000Y-118870000D02*
X96140000Y-118870000D01*
X83320000Y-124070000D02*
X83320000Y-118870000D01*
%TO.C,R4*%
X176149721Y-97040000D02*
X176475279Y-97040000D01*
X176149721Y-98060000D02*
X176475279Y-98060000D01*
%TO.C,R3*%
X157925279Y-102660000D02*
X157599721Y-102660000D01*
X157925279Y-101640000D02*
X157599721Y-101640000D01*
%TO.C,C7*%
X168847936Y-101690000D02*
X170052064Y-101690000D01*
X168847936Y-103510000D02*
X170052064Y-103510000D01*
%TO.C,C6*%
X81997936Y-125790000D02*
X83202064Y-125790000D01*
X81997936Y-127610000D02*
X83202064Y-127610000D01*
%TO.C,C2*%
X96558578Y-114360000D02*
X96041422Y-114360000D01*
X96558578Y-112940000D02*
X96041422Y-112940000D01*
%TO.C,C1*%
X83202064Y-130860000D02*
X81997936Y-130860000D01*
X83202064Y-129040000D02*
X81997936Y-129040000D01*
%TO.C,FB1*%
X96558578Y-116360000D02*
X96041422Y-116360000D01*
X96558578Y-114940000D02*
X96041422Y-114940000D01*
%TO.C,C5*%
X96662779Y-112410000D02*
X96337221Y-112410000D01*
X96662779Y-111390000D02*
X96337221Y-111390000D01*
%TO.C,C3*%
X104737221Y-111390000D02*
X105062779Y-111390000D01*
X104737221Y-112410000D02*
X105062779Y-112410000D01*
%TO.C,C4*%
X104724721Y-108890000D02*
X105050279Y-108890000D01*
X104724721Y-109910000D02*
X105050279Y-109910000D01*
%TO.C,U1*%
D11*
X102469428Y-113432714D02*
X102469428Y-114049571D01*
X102505714Y-114122142D01*
X102542000Y-114158428D01*
X102614571Y-114194714D01*
X102759714Y-114194714D01*
X102832285Y-114158428D01*
X102868571Y-114122142D01*
X102904857Y-114049571D01*
X102904857Y-113432714D01*
X103666857Y-114194714D02*
X103231428Y-114194714D01*
X103449142Y-114194714D02*
X103449142Y-113432714D01*
X103376571Y-113541571D01*
X103304000Y-113614142D01*
X103231428Y-113650428D01*
%TO.C,R2*%
X155423000Y-103844714D02*
X155169000Y-103481857D01*
X154987571Y-103844714D02*
X154987571Y-103082714D01*
X155277857Y-103082714D01*
X155350428Y-103119000D01*
X155386714Y-103155285D01*
X155423000Y-103227857D01*
X155423000Y-103336714D01*
X155386714Y-103409285D01*
X155350428Y-103445571D01*
X155277857Y-103481857D01*
X154987571Y-103481857D01*
X155713285Y-103155285D02*
X155749571Y-103119000D01*
X155822142Y-103082714D01*
X156003571Y-103082714D01*
X156076142Y-103119000D01*
X156112428Y-103155285D01*
X156148714Y-103227857D01*
X156148714Y-103300428D01*
X156112428Y-103409285D01*
X155677000Y-103844714D01*
X156148714Y-103844714D01*
%TO.C,R14*%
X93759869Y-109497368D02*
X93836843Y-109061184D01*
X93451975Y-109189474D02*
X93990790Y-108650658D01*
X94196053Y-108855921D01*
X94221711Y-108932895D01*
X94221711Y-108984211D01*
X94196053Y-109061184D01*
X94119080Y-109138158D01*
X94042106Y-109163816D01*
X93990790Y-109163816D01*
X93913817Y-109138158D01*
X93708554Y-108932895D01*
X94273027Y-110010525D02*
X93965132Y-109702631D01*
X94119080Y-109856578D02*
X94657895Y-109317763D01*
X94529606Y-109343421D01*
X94426974Y-109343421D01*
X94350001Y-109317763D01*
X95094079Y-110113157D02*
X94734869Y-110472367D01*
X95171052Y-109779605D02*
X94657895Y-110036183D01*
X94991447Y-110369736D01*
%TO.C,R1*%
X98423000Y-104944714D02*
X98169000Y-104581857D01*
X97987571Y-104944714D02*
X97987571Y-104182714D01*
X98277857Y-104182714D01*
X98350428Y-104219000D01*
X98386714Y-104255285D01*
X98423000Y-104327857D01*
X98423000Y-104436714D01*
X98386714Y-104509285D01*
X98350428Y-104545571D01*
X98277857Y-104581857D01*
X97987571Y-104581857D01*
X99148714Y-104944714D02*
X98713285Y-104944714D01*
X98931000Y-104944714D02*
X98931000Y-104182714D01*
X98858428Y-104291571D01*
X98785857Y-104364142D01*
X98713285Y-104400428D01*
%TO.C,R16*%
X102997368Y-107940131D02*
X102561184Y-107863157D01*
X102689474Y-108248025D02*
X102150658Y-107709210D01*
X102355921Y-107503947D01*
X102432895Y-107478289D01*
X102484211Y-107478289D01*
X102561184Y-107503947D01*
X102638158Y-107580920D01*
X102663816Y-107657894D01*
X102663816Y-107709210D01*
X102638158Y-107786183D01*
X102432895Y-107991446D01*
X103510525Y-107426973D02*
X103202631Y-107734868D01*
X103356578Y-107580920D02*
X102817763Y-107042105D01*
X102843421Y-107170394D01*
X102843421Y-107273026D01*
X102817763Y-107350000D01*
X103433552Y-106426316D02*
X103330920Y-106528948D01*
X103305262Y-106605921D01*
X103305262Y-106657237D01*
X103330920Y-106785526D01*
X103407894Y-106913816D01*
X103613157Y-107119079D01*
X103690131Y-107144737D01*
X103741446Y-107144737D01*
X103818420Y-107119079D01*
X103921051Y-107016447D01*
X103946709Y-106939474D01*
X103946709Y-106888158D01*
X103921051Y-106811184D01*
X103792762Y-106682895D01*
X103715788Y-106657237D01*
X103664473Y-106657237D01*
X103587499Y-106682895D01*
X103484868Y-106785526D01*
X103459210Y-106862500D01*
X103459210Y-106913816D01*
X103484868Y-106990789D01*
%TO.C,R15*%
X100747368Y-105690131D02*
X100311184Y-105613157D01*
X100439474Y-105998025D02*
X99900658Y-105459210D01*
X100105921Y-105253947D01*
X100182895Y-105228289D01*
X100234211Y-105228289D01*
X100311184Y-105253947D01*
X100388158Y-105330920D01*
X100413816Y-105407894D01*
X100413816Y-105459210D01*
X100388158Y-105536183D01*
X100182895Y-105741446D01*
X101260525Y-105176973D02*
X100952631Y-105484868D01*
X101106578Y-105330920D02*
X100567763Y-104792105D01*
X100593421Y-104920394D01*
X100593421Y-105023026D01*
X100567763Y-105100000D01*
X101209210Y-104150658D02*
X100952631Y-104407237D01*
X101183552Y-104689474D01*
X101183552Y-104638158D01*
X101209210Y-104561184D01*
X101337499Y-104432895D01*
X101414473Y-104407237D01*
X101465788Y-104407237D01*
X101542762Y-104432895D01*
X101671051Y-104561184D01*
X101696709Y-104638158D01*
X101696709Y-104689474D01*
X101671051Y-104766447D01*
X101542762Y-104894737D01*
X101465788Y-104920394D01*
X101414473Y-104920394D01*
%TO.C,R10*%
X106360142Y-107944714D02*
X106106142Y-107581857D01*
X105924714Y-107944714D02*
X105924714Y-107182714D01*
X106215000Y-107182714D01*
X106287571Y-107219000D01*
X106323857Y-107255285D01*
X106360142Y-107327857D01*
X106360142Y-107436714D01*
X106323857Y-107509285D01*
X106287571Y-107545571D01*
X106215000Y-107581857D01*
X105924714Y-107581857D01*
X107085857Y-107944714D02*
X106650428Y-107944714D01*
X106868142Y-107944714D02*
X106868142Y-107182714D01*
X106795571Y-107291571D01*
X106723000Y-107364142D01*
X106650428Y-107400428D01*
X107557571Y-107182714D02*
X107630142Y-107182714D01*
X107702714Y-107219000D01*
X107739000Y-107255285D01*
X107775285Y-107327857D01*
X107811571Y-107473000D01*
X107811571Y-107654428D01*
X107775285Y-107799571D01*
X107739000Y-107872142D01*
X107702714Y-107908428D01*
X107630142Y-107944714D01*
X107557571Y-107944714D01*
X107485000Y-107908428D01*
X107448714Y-107872142D01*
X107412428Y-107799571D01*
X107376142Y-107654428D01*
X107376142Y-107473000D01*
X107412428Y-107327857D01*
X107448714Y-107255285D01*
X107485000Y-107219000D01*
X107557571Y-107182714D01*
%TO.C,R13*%
X92009868Y-109497368D02*
X92086842Y-109061184D01*
X91701974Y-109189474D02*
X92240789Y-108650658D01*
X92446052Y-108855921D01*
X92471710Y-108932895D01*
X92471710Y-108984211D01*
X92446052Y-109061184D01*
X92369079Y-109138158D01*
X92292105Y-109163816D01*
X92240789Y-109163816D01*
X92163816Y-109138158D01*
X91958553Y-108932895D01*
X92523026Y-110010525D02*
X92215131Y-109702631D01*
X92369079Y-109856578D02*
X92907894Y-109317763D01*
X92779605Y-109343421D01*
X92676973Y-109343421D01*
X92600000Y-109317763D01*
X93241446Y-109651315D02*
X93574999Y-109984868D01*
X93190131Y-110010525D01*
X93267104Y-110087499D01*
X93292762Y-110164473D01*
X93292762Y-110215788D01*
X93267104Y-110292762D01*
X93138815Y-110421051D01*
X93061841Y-110446709D01*
X93010525Y-110446709D01*
X92933552Y-110421051D01*
X92779605Y-110267104D01*
X92753947Y-110190131D01*
X92753947Y-110138815D01*
%TO.C,R12*%
X101860142Y-115944714D02*
X101606142Y-115581857D01*
X101424714Y-115944714D02*
X101424714Y-115182714D01*
X101715000Y-115182714D01*
X101787571Y-115219000D01*
X101823857Y-115255285D01*
X101860142Y-115327857D01*
X101860142Y-115436714D01*
X101823857Y-115509285D01*
X101787571Y-115545571D01*
X101715000Y-115581857D01*
X101424714Y-115581857D01*
X102585857Y-115944714D02*
X102150428Y-115944714D01*
X102368142Y-115944714D02*
X102368142Y-115182714D01*
X102295571Y-115291571D01*
X102223000Y-115364142D01*
X102150428Y-115400428D01*
X102876142Y-115255285D02*
X102912428Y-115219000D01*
X102985000Y-115182714D01*
X103166428Y-115182714D01*
X103239000Y-115219000D01*
X103275285Y-115255285D01*
X103311571Y-115327857D01*
X103311571Y-115400428D01*
X103275285Y-115509285D01*
X102839857Y-115944714D01*
X103311571Y-115944714D01*
%TO.C,R11*%
X104360142Y-115944714D02*
X104106142Y-115581857D01*
X103924714Y-115944714D02*
X103924714Y-115182714D01*
X104215000Y-115182714D01*
X104287571Y-115219000D01*
X104323857Y-115255285D01*
X104360142Y-115327857D01*
X104360142Y-115436714D01*
X104323857Y-115509285D01*
X104287571Y-115545571D01*
X104215000Y-115581857D01*
X103924714Y-115581857D01*
X105085857Y-115944714D02*
X104650428Y-115944714D01*
X104868142Y-115944714D02*
X104868142Y-115182714D01*
X104795571Y-115291571D01*
X104723000Y-115364142D01*
X104650428Y-115400428D01*
X105811571Y-115944714D02*
X105376142Y-115944714D01*
X105593857Y-115944714D02*
X105593857Y-115182714D01*
X105521285Y-115291571D01*
X105448714Y-115364142D01*
X105376142Y-115400428D01*
%TO.C,R9*%
X106473000Y-106194714D02*
X106219000Y-105831857D01*
X106037571Y-106194714D02*
X106037571Y-105432714D01*
X106327857Y-105432714D01*
X106400428Y-105469000D01*
X106436714Y-105505285D01*
X106473000Y-105577857D01*
X106473000Y-105686714D01*
X106436714Y-105759285D01*
X106400428Y-105795571D01*
X106327857Y-105831857D01*
X106037571Y-105831857D01*
X106835857Y-106194714D02*
X106981000Y-106194714D01*
X107053571Y-106158428D01*
X107089857Y-106122142D01*
X107162428Y-106013285D01*
X107198714Y-105868142D01*
X107198714Y-105577857D01*
X107162428Y-105505285D01*
X107126142Y-105469000D01*
X107053571Y-105432714D01*
X106908428Y-105432714D01*
X106835857Y-105469000D01*
X106799571Y-105505285D01*
X106763285Y-105577857D01*
X106763285Y-105759285D01*
X106799571Y-105831857D01*
X106835857Y-105868142D01*
X106908428Y-105904428D01*
X107053571Y-105904428D01*
X107126142Y-105868142D01*
X107162428Y-105831857D01*
X107198714Y-105759285D01*
%TO.C,R8*%
X96373000Y-105924714D02*
X96119000Y-105561857D01*
X95937571Y-105924714D02*
X95937571Y-105162714D01*
X96227857Y-105162714D01*
X96300428Y-105199000D01*
X96336714Y-105235285D01*
X96373000Y-105307857D01*
X96373000Y-105416714D01*
X96336714Y-105489285D01*
X96300428Y-105525571D01*
X96227857Y-105561857D01*
X95937571Y-105561857D01*
X96808428Y-105489285D02*
X96735857Y-105453000D01*
X96699571Y-105416714D01*
X96663285Y-105344142D01*
X96663285Y-105307857D01*
X96699571Y-105235285D01*
X96735857Y-105199000D01*
X96808428Y-105162714D01*
X96953571Y-105162714D01*
X97026142Y-105199000D01*
X97062428Y-105235285D01*
X97098714Y-105307857D01*
X97098714Y-105344142D01*
X97062428Y-105416714D01*
X97026142Y-105453000D01*
X96953571Y-105489285D01*
X96808428Y-105489285D01*
X96735857Y-105525571D01*
X96699571Y-105561857D01*
X96663285Y-105634428D01*
X96663285Y-105779571D01*
X96699571Y-105852142D01*
X96735857Y-105888428D01*
X96808428Y-105924714D01*
X96953571Y-105924714D01*
X97026142Y-105888428D01*
X97062428Y-105852142D01*
X97098714Y-105779571D01*
X97098714Y-105634428D01*
X97062428Y-105561857D01*
X97026142Y-105525571D01*
X96953571Y-105489285D01*
%TO.C,R7*%
X94473000Y-105944714D02*
X94219000Y-105581857D01*
X94037571Y-105944714D02*
X94037571Y-105182714D01*
X94327857Y-105182714D01*
X94400428Y-105219000D01*
X94436714Y-105255285D01*
X94473000Y-105327857D01*
X94473000Y-105436714D01*
X94436714Y-105509285D01*
X94400428Y-105545571D01*
X94327857Y-105581857D01*
X94037571Y-105581857D01*
X94727000Y-105182714D02*
X95235000Y-105182714D01*
X94908428Y-105944714D01*
%TO.C,R6*%
X98723000Y-118444714D02*
X98469000Y-118081857D01*
X98287571Y-118444714D02*
X98287571Y-117682714D01*
X98577857Y-117682714D01*
X98650428Y-117719000D01*
X98686714Y-117755285D01*
X98723000Y-117827857D01*
X98723000Y-117936714D01*
X98686714Y-118009285D01*
X98650428Y-118045571D01*
X98577857Y-118081857D01*
X98287571Y-118081857D01*
X99376142Y-117682714D02*
X99231000Y-117682714D01*
X99158428Y-117719000D01*
X99122142Y-117755285D01*
X99049571Y-117864142D01*
X99013285Y-118009285D01*
X99013285Y-118299571D01*
X99049571Y-118372142D01*
X99085857Y-118408428D01*
X99158428Y-118444714D01*
X99303571Y-118444714D01*
X99376142Y-118408428D01*
X99412428Y-118372142D01*
X99448714Y-118299571D01*
X99448714Y-118118142D01*
X99412428Y-118045571D01*
X99376142Y-118009285D01*
X99303571Y-117973000D01*
X99158428Y-117973000D01*
X99085857Y-118009285D01*
X99049571Y-118045571D01*
X99013285Y-118118142D01*
%TO.C,R5*%
X100973000Y-118444714D02*
X100719000Y-118081857D01*
X100537571Y-118444714D02*
X100537571Y-117682714D01*
X100827857Y-117682714D01*
X100900428Y-117719000D01*
X100936714Y-117755285D01*
X100973000Y-117827857D01*
X100973000Y-117936714D01*
X100936714Y-118009285D01*
X100900428Y-118045571D01*
X100827857Y-118081857D01*
X100537571Y-118081857D01*
X101662428Y-117682714D02*
X101299571Y-117682714D01*
X101263285Y-118045571D01*
X101299571Y-118009285D01*
X101372142Y-117973000D01*
X101553571Y-117973000D01*
X101626142Y-118009285D01*
X101662428Y-118045571D01*
X101698714Y-118118142D01*
X101698714Y-118299571D01*
X101662428Y-118372142D01*
X101626142Y-118408428D01*
X101553571Y-118444714D01*
X101372142Y-118444714D01*
X101299571Y-118408428D01*
X101263285Y-118372142D01*
%TO.C,R4*%
X176185500Y-96464714D02*
X175931500Y-96101857D01*
X175750071Y-96464714D02*
X175750071Y-95702714D01*
X176040357Y-95702714D01*
X176112928Y-95739000D01*
X176149214Y-95775285D01*
X176185500Y-95847857D01*
X176185500Y-95956714D01*
X176149214Y-96029285D01*
X176112928Y-96065571D01*
X176040357Y-96101857D01*
X175750071Y-96101857D01*
X176838642Y-95956714D02*
X176838642Y-96464714D01*
X176657214Y-95666428D02*
X176475785Y-96210714D01*
X176947500Y-96210714D01*
%TO.C,R3*%
X157635500Y-103844714D02*
X157381500Y-103481857D01*
X157200071Y-103844714D02*
X157200071Y-103082714D01*
X157490357Y-103082714D01*
X157562928Y-103119000D01*
X157599214Y-103155285D01*
X157635500Y-103227857D01*
X157635500Y-103336714D01*
X157599214Y-103409285D01*
X157562928Y-103445571D01*
X157490357Y-103481857D01*
X157200071Y-103481857D01*
X157889500Y-103082714D02*
X158361214Y-103082714D01*
X158107214Y-103373000D01*
X158216071Y-103373000D01*
X158288642Y-103409285D01*
X158324928Y-103445571D01*
X158361214Y-103518142D01*
X158361214Y-103699571D01*
X158324928Y-103772142D01*
X158288642Y-103808428D01*
X158216071Y-103844714D01*
X157998357Y-103844714D01*
X157925785Y-103808428D01*
X157889500Y-103772142D01*
%TO.C,C7*%
X169323000Y-101052142D02*
X169286714Y-101088428D01*
X169177857Y-101124714D01*
X169105285Y-101124714D01*
X168996428Y-101088428D01*
X168923857Y-101015857D01*
X168887571Y-100943285D01*
X168851285Y-100798142D01*
X168851285Y-100689285D01*
X168887571Y-100544142D01*
X168923857Y-100471571D01*
X168996428Y-100399000D01*
X169105285Y-100362714D01*
X169177857Y-100362714D01*
X169286714Y-100399000D01*
X169323000Y-100435285D01*
X169577000Y-100362714D02*
X170085000Y-100362714D01*
X169758428Y-101124714D01*
%TO.C,C6*%
X79373000Y-127022142D02*
X79336714Y-127058428D01*
X79227857Y-127094714D01*
X79155285Y-127094714D01*
X79046428Y-127058428D01*
X78973857Y-126985857D01*
X78937571Y-126913285D01*
X78901285Y-126768142D01*
X78901285Y-126659285D01*
X78937571Y-126514142D01*
X78973857Y-126441571D01*
X79046428Y-126369000D01*
X79155285Y-126332714D01*
X79227857Y-126332714D01*
X79336714Y-126369000D01*
X79373000Y-126405285D01*
X80026142Y-126332714D02*
X79881000Y-126332714D01*
X79808428Y-126369000D01*
X79772142Y-126405285D01*
X79699571Y-126514142D01*
X79663285Y-126659285D01*
X79663285Y-126949571D01*
X79699571Y-127022142D01*
X79735857Y-127058428D01*
X79808428Y-127094714D01*
X79953571Y-127094714D01*
X80026142Y-127058428D01*
X80062428Y-127022142D01*
X80098714Y-126949571D01*
X80098714Y-126768142D01*
X80062428Y-126695571D01*
X80026142Y-126659285D01*
X79953571Y-126623000D01*
X79808428Y-126623000D01*
X79735857Y-126659285D01*
X79699571Y-126695571D01*
X79663285Y-126768142D01*
%TO.C,C2*%
X93773000Y-113922142D02*
X93736714Y-113958428D01*
X93627857Y-113994714D01*
X93555285Y-113994714D01*
X93446428Y-113958428D01*
X93373857Y-113885857D01*
X93337571Y-113813285D01*
X93301285Y-113668142D01*
X93301285Y-113559285D01*
X93337571Y-113414142D01*
X93373857Y-113341571D01*
X93446428Y-113269000D01*
X93555285Y-113232714D01*
X93627857Y-113232714D01*
X93736714Y-113269000D01*
X93773000Y-113305285D01*
X94063285Y-113305285D02*
X94099571Y-113269000D01*
X94172142Y-113232714D01*
X94353571Y-113232714D01*
X94426142Y-113269000D01*
X94462428Y-113305285D01*
X94498714Y-113377857D01*
X94498714Y-113450428D01*
X94462428Y-113559285D01*
X94027000Y-113994714D01*
X94498714Y-113994714D01*
%TO.C,C1*%
X79423000Y-130222142D02*
X79386714Y-130258428D01*
X79277857Y-130294714D01*
X79205285Y-130294714D01*
X79096428Y-130258428D01*
X79023857Y-130185857D01*
X78987571Y-130113285D01*
X78951285Y-129968142D01*
X78951285Y-129859285D01*
X78987571Y-129714142D01*
X79023857Y-129641571D01*
X79096428Y-129569000D01*
X79205285Y-129532714D01*
X79277857Y-129532714D01*
X79386714Y-129569000D01*
X79423000Y-129605285D01*
X80148714Y-130294714D02*
X79713285Y-130294714D01*
X79931000Y-130294714D02*
X79931000Y-129532714D01*
X79858428Y-129641571D01*
X79785857Y-129714142D01*
X79713285Y-129750428D01*
%TO.C,FB1*%
X95665000Y-117095571D02*
X95411000Y-117095571D01*
X95411000Y-117494714D02*
X95411000Y-116732714D01*
X95773857Y-116732714D01*
X96318142Y-117095571D02*
X96427000Y-117131857D01*
X96463285Y-117168142D01*
X96499571Y-117240714D01*
X96499571Y-117349571D01*
X96463285Y-117422142D01*
X96427000Y-117458428D01*
X96354428Y-117494714D01*
X96064142Y-117494714D01*
X96064142Y-116732714D01*
X96318142Y-116732714D01*
X96390714Y-116769000D01*
X96427000Y-116805285D01*
X96463285Y-116877857D01*
X96463285Y-116950428D01*
X96427000Y-117023000D01*
X96390714Y-117059285D01*
X96318142Y-117095571D01*
X96064142Y-117095571D01*
X97225285Y-117494714D02*
X96789857Y-117494714D01*
X97007571Y-117494714D02*
X97007571Y-116732714D01*
X96935000Y-116841571D01*
X96862428Y-116914142D01*
X96789857Y-116950428D01*
%TO.C,C5*%
X94073000Y-112172142D02*
X94036714Y-112208428D01*
X93927857Y-112244714D01*
X93855285Y-112244714D01*
X93746428Y-112208428D01*
X93673857Y-112135857D01*
X93637571Y-112063285D01*
X93601285Y-111918142D01*
X93601285Y-111809285D01*
X93637571Y-111664142D01*
X93673857Y-111591571D01*
X93746428Y-111519000D01*
X93855285Y-111482714D01*
X93927857Y-111482714D01*
X94036714Y-111519000D01*
X94073000Y-111555285D01*
X94762428Y-111482714D02*
X94399571Y-111482714D01*
X94363285Y-111845571D01*
X94399571Y-111809285D01*
X94472142Y-111773000D01*
X94653571Y-111773000D01*
X94726142Y-111809285D01*
X94762428Y-111845571D01*
X94798714Y-111918142D01*
X94798714Y-112099571D01*
X94762428Y-112172142D01*
X94726142Y-112208428D01*
X94653571Y-112244714D01*
X94472142Y-112244714D01*
X94399571Y-112208428D01*
X94363285Y-112172142D01*
%TO.C,C3*%
X106973000Y-112222142D02*
X106936714Y-112258428D01*
X106827857Y-112294714D01*
X106755285Y-112294714D01*
X106646428Y-112258428D01*
X106573857Y-112185857D01*
X106537571Y-112113285D01*
X106501285Y-111968142D01*
X106501285Y-111859285D01*
X106537571Y-111714142D01*
X106573857Y-111641571D01*
X106646428Y-111569000D01*
X106755285Y-111532714D01*
X106827857Y-111532714D01*
X106936714Y-111569000D01*
X106973000Y-111605285D01*
X107227000Y-111532714D02*
X107698714Y-111532714D01*
X107444714Y-111823000D01*
X107553571Y-111823000D01*
X107626142Y-111859285D01*
X107662428Y-111895571D01*
X107698714Y-111968142D01*
X107698714Y-112149571D01*
X107662428Y-112222142D01*
X107626142Y-112258428D01*
X107553571Y-112294714D01*
X107335857Y-112294714D01*
X107263285Y-112258428D01*
X107227000Y-112222142D01*
%TO.C,C4*%
X106948000Y-109672142D02*
X106911714Y-109708428D01*
X106802857Y-109744714D01*
X106730285Y-109744714D01*
X106621428Y-109708428D01*
X106548857Y-109635857D01*
X106512571Y-109563285D01*
X106476285Y-109418142D01*
X106476285Y-109309285D01*
X106512571Y-109164142D01*
X106548857Y-109091571D01*
X106621428Y-109019000D01*
X106730285Y-108982714D01*
X106802857Y-108982714D01*
X106911714Y-109019000D01*
X106948000Y-109055285D01*
X107601142Y-109236714D02*
X107601142Y-109744714D01*
X107419714Y-108946428D02*
X107238285Y-109490714D01*
X107710000Y-109490714D01*
%TD*%
M02*
