%TF.GenerationSoftware,KiCad,Pcbnew,(5.1.6)-1*%
%TF.CreationDate,2021-07-09T16:03:55+01:00*%
%TF.ProjectId,t9120riser,74393132-3072-4697-9365-722e6b696361,rev?*%
%TF.SameCoordinates,Original*%
%TF.FileFunction,Soldermask,Top*%
%TF.FilePolarity,Negative*%
%FSLAX46Y46*%
G04 Gerber Fmt 4.6, Leading zero omitted, Abs format (unit mm)*
G04 Created by KiCad (PCBNEW (5.1.6)-1) date 2021-07-09 16:03:55*
%MOMM*%
%LPD*%
G01*
G04 APERTURE LIST*
%ADD10R,2.600000X2.600000*%
%ADD11O,1.800000X1.800000*%
%ADD12C,2.450000*%
%ADD13C,1.100000*%
%ADD14C,1.800000*%
%ADD15R,1.800000X1.800000*%
%ADD16R,0.500000X1.600000*%
%ADD17R,0.800000X4.300000*%
%ADD18R,0.800000X3.300000*%
%ADD19C,6.100000*%
%ADD20C,6.600000*%
%ADD21C,1.750000*%
%ADD22C,1.250000*%
%ADD23C,0.254000*%
G04 APERTURE END LIST*
D10*
%TO.C,U1*%
X100750000Y-110900000D03*
G36*
G01*
X101925000Y-112462500D02*
X101925000Y-113212500D01*
G75*
G02*
X101837500Y-113300000I-87500J0D01*
G01*
X101662500Y-113300000D01*
G75*
G02*
X101575000Y-113212500I0J87500D01*
G01*
X101575000Y-112462500D01*
G75*
G02*
X101662500Y-112375000I87500J0D01*
G01*
X101837500Y-112375000D01*
G75*
G02*
X101925000Y-112462500I0J-87500D01*
G01*
G37*
G36*
G01*
X101425000Y-112462500D02*
X101425000Y-113212500D01*
G75*
G02*
X101337500Y-113300000I-87500J0D01*
G01*
X101162500Y-113300000D01*
G75*
G02*
X101075000Y-113212500I0J87500D01*
G01*
X101075000Y-112462500D01*
G75*
G02*
X101162500Y-112375000I87500J0D01*
G01*
X101337500Y-112375000D01*
G75*
G02*
X101425000Y-112462500I0J-87500D01*
G01*
G37*
G36*
G01*
X100925000Y-112462500D02*
X100925000Y-113212500D01*
G75*
G02*
X100837500Y-113300000I-87500J0D01*
G01*
X100662500Y-113300000D01*
G75*
G02*
X100575000Y-113212500I0J87500D01*
G01*
X100575000Y-112462500D01*
G75*
G02*
X100662500Y-112375000I87500J0D01*
G01*
X100837500Y-112375000D01*
G75*
G02*
X100925000Y-112462500I0J-87500D01*
G01*
G37*
G36*
G01*
X100425000Y-112462500D02*
X100425000Y-113212500D01*
G75*
G02*
X100337500Y-113300000I-87500J0D01*
G01*
X100162500Y-113300000D01*
G75*
G02*
X100075000Y-113212500I0J87500D01*
G01*
X100075000Y-112462500D01*
G75*
G02*
X100162500Y-112375000I87500J0D01*
G01*
X100337500Y-112375000D01*
G75*
G02*
X100425000Y-112462500I0J-87500D01*
G01*
G37*
G36*
G01*
X99925000Y-112462500D02*
X99925000Y-113212500D01*
G75*
G02*
X99837500Y-113300000I-87500J0D01*
G01*
X99662500Y-113300000D01*
G75*
G02*
X99575000Y-113212500I0J87500D01*
G01*
X99575000Y-112462500D01*
G75*
G02*
X99662500Y-112375000I87500J0D01*
G01*
X99837500Y-112375000D01*
G75*
G02*
X99925000Y-112462500I0J-87500D01*
G01*
G37*
G36*
G01*
X99275000Y-111812500D02*
X99275000Y-111987500D01*
G75*
G02*
X99187500Y-112075000I-87500J0D01*
G01*
X98437500Y-112075000D01*
G75*
G02*
X98350000Y-111987500I0J87500D01*
G01*
X98350000Y-111812500D01*
G75*
G02*
X98437500Y-111725000I87500J0D01*
G01*
X99187500Y-111725000D01*
G75*
G02*
X99275000Y-111812500I0J-87500D01*
G01*
G37*
G36*
G01*
X99275000Y-111312500D02*
X99275000Y-111487500D01*
G75*
G02*
X99187500Y-111575000I-87500J0D01*
G01*
X98437500Y-111575000D01*
G75*
G02*
X98350000Y-111487500I0J87500D01*
G01*
X98350000Y-111312500D01*
G75*
G02*
X98437500Y-111225000I87500J0D01*
G01*
X99187500Y-111225000D01*
G75*
G02*
X99275000Y-111312500I0J-87500D01*
G01*
G37*
G36*
G01*
X99275000Y-110812500D02*
X99275000Y-110987500D01*
G75*
G02*
X99187500Y-111075000I-87500J0D01*
G01*
X98437500Y-111075000D01*
G75*
G02*
X98350000Y-110987500I0J87500D01*
G01*
X98350000Y-110812500D01*
G75*
G02*
X98437500Y-110725000I87500J0D01*
G01*
X99187500Y-110725000D01*
G75*
G02*
X99275000Y-110812500I0J-87500D01*
G01*
G37*
G36*
G01*
X99275000Y-110312500D02*
X99275000Y-110487500D01*
G75*
G02*
X99187500Y-110575000I-87500J0D01*
G01*
X98437500Y-110575000D01*
G75*
G02*
X98350000Y-110487500I0J87500D01*
G01*
X98350000Y-110312500D01*
G75*
G02*
X98437500Y-110225000I87500J0D01*
G01*
X99187500Y-110225000D01*
G75*
G02*
X99275000Y-110312500I0J-87500D01*
G01*
G37*
G36*
G01*
X99275000Y-109812500D02*
X99275000Y-109987500D01*
G75*
G02*
X99187500Y-110075000I-87500J0D01*
G01*
X98437500Y-110075000D01*
G75*
G02*
X98350000Y-109987500I0J87500D01*
G01*
X98350000Y-109812500D01*
G75*
G02*
X98437500Y-109725000I87500J0D01*
G01*
X99187500Y-109725000D01*
G75*
G02*
X99275000Y-109812500I0J-87500D01*
G01*
G37*
G36*
G01*
X99925000Y-108587500D02*
X99925000Y-109337500D01*
G75*
G02*
X99837500Y-109425000I-87500J0D01*
G01*
X99662500Y-109425000D01*
G75*
G02*
X99575000Y-109337500I0J87500D01*
G01*
X99575000Y-108587500D01*
G75*
G02*
X99662500Y-108500000I87500J0D01*
G01*
X99837500Y-108500000D01*
G75*
G02*
X99925000Y-108587500I0J-87500D01*
G01*
G37*
G36*
G01*
X100425000Y-108587500D02*
X100425000Y-109337500D01*
G75*
G02*
X100337500Y-109425000I-87500J0D01*
G01*
X100162500Y-109425000D01*
G75*
G02*
X100075000Y-109337500I0J87500D01*
G01*
X100075000Y-108587500D01*
G75*
G02*
X100162500Y-108500000I87500J0D01*
G01*
X100337500Y-108500000D01*
G75*
G02*
X100425000Y-108587500I0J-87500D01*
G01*
G37*
G36*
G01*
X100925000Y-108587500D02*
X100925000Y-109337500D01*
G75*
G02*
X100837500Y-109425000I-87500J0D01*
G01*
X100662500Y-109425000D01*
G75*
G02*
X100575000Y-109337500I0J87500D01*
G01*
X100575000Y-108587500D01*
G75*
G02*
X100662500Y-108500000I87500J0D01*
G01*
X100837500Y-108500000D01*
G75*
G02*
X100925000Y-108587500I0J-87500D01*
G01*
G37*
G36*
G01*
X101425000Y-108587500D02*
X101425000Y-109337500D01*
G75*
G02*
X101337500Y-109425000I-87500J0D01*
G01*
X101162500Y-109425000D01*
G75*
G02*
X101075000Y-109337500I0J87500D01*
G01*
X101075000Y-108587500D01*
G75*
G02*
X101162500Y-108500000I87500J0D01*
G01*
X101337500Y-108500000D01*
G75*
G02*
X101425000Y-108587500I0J-87500D01*
G01*
G37*
G36*
G01*
X101925000Y-108587500D02*
X101925000Y-109337500D01*
G75*
G02*
X101837500Y-109425000I-87500J0D01*
G01*
X101662500Y-109425000D01*
G75*
G02*
X101575000Y-109337500I0J87500D01*
G01*
X101575000Y-108587500D01*
G75*
G02*
X101662500Y-108500000I87500J0D01*
G01*
X101837500Y-108500000D01*
G75*
G02*
X101925000Y-108587500I0J-87500D01*
G01*
G37*
G36*
G01*
X103150000Y-109812500D02*
X103150000Y-109987500D01*
G75*
G02*
X103062500Y-110075000I-87500J0D01*
G01*
X102312500Y-110075000D01*
G75*
G02*
X102225000Y-109987500I0J87500D01*
G01*
X102225000Y-109812500D01*
G75*
G02*
X102312500Y-109725000I87500J0D01*
G01*
X103062500Y-109725000D01*
G75*
G02*
X103150000Y-109812500I0J-87500D01*
G01*
G37*
G36*
G01*
X103150000Y-110312500D02*
X103150000Y-110487500D01*
G75*
G02*
X103062500Y-110575000I-87500J0D01*
G01*
X102312500Y-110575000D01*
G75*
G02*
X102225000Y-110487500I0J87500D01*
G01*
X102225000Y-110312500D01*
G75*
G02*
X102312500Y-110225000I87500J0D01*
G01*
X103062500Y-110225000D01*
G75*
G02*
X103150000Y-110312500I0J-87500D01*
G01*
G37*
G36*
G01*
X103150000Y-110812500D02*
X103150000Y-110987500D01*
G75*
G02*
X103062500Y-111075000I-87500J0D01*
G01*
X102312500Y-111075000D01*
G75*
G02*
X102225000Y-110987500I0J87500D01*
G01*
X102225000Y-110812500D01*
G75*
G02*
X102312500Y-110725000I87500J0D01*
G01*
X103062500Y-110725000D01*
G75*
G02*
X103150000Y-110812500I0J-87500D01*
G01*
G37*
G36*
G01*
X103150000Y-111312500D02*
X103150000Y-111487500D01*
G75*
G02*
X103062500Y-111575000I-87500J0D01*
G01*
X102312500Y-111575000D01*
G75*
G02*
X102225000Y-111487500I0J87500D01*
G01*
X102225000Y-111312500D01*
G75*
G02*
X102312500Y-111225000I87500J0D01*
G01*
X103062500Y-111225000D01*
G75*
G02*
X103150000Y-111312500I0J-87500D01*
G01*
G37*
G36*
G01*
X103150000Y-111812500D02*
X103150000Y-111987500D01*
G75*
G02*
X103062500Y-112075000I-87500J0D01*
G01*
X102312500Y-112075000D01*
G75*
G02*
X102225000Y-111987500I0J87500D01*
G01*
X102225000Y-111812500D01*
G75*
G02*
X102312500Y-111725000I87500J0D01*
G01*
X103062500Y-111725000D01*
G75*
G02*
X103150000Y-111812500I0J-87500D01*
G01*
G37*
%TD*%
%TO.C,R2*%
G36*
G01*
X155831250Y-100987500D02*
X155268750Y-100987500D01*
G75*
G02*
X155025000Y-100743750I0J243750D01*
G01*
X155025000Y-100256250D01*
G75*
G02*
X155268750Y-100012500I243750J0D01*
G01*
X155831250Y-100012500D01*
G75*
G02*
X156075000Y-100256250I0J-243750D01*
G01*
X156075000Y-100743750D01*
G75*
G02*
X155831250Y-100987500I-243750J0D01*
G01*
G37*
G36*
G01*
X155831250Y-102562500D02*
X155268750Y-102562500D01*
G75*
G02*
X155025000Y-102318750I0J243750D01*
G01*
X155025000Y-101831250D01*
G75*
G02*
X155268750Y-101587500I243750J0D01*
G01*
X155831250Y-101587500D01*
G75*
G02*
X156075000Y-101831250I0J-243750D01*
G01*
X156075000Y-102318750D01*
G75*
G02*
X155831250Y-102562500I-243750J0D01*
G01*
G37*
%TD*%
%TO.C,R14*%
G36*
G01*
X96902289Y-109281596D02*
X97181596Y-109002288D01*
G75*
G02*
X97425548Y-109002288I121976J-121976D01*
G01*
X97669500Y-109246240D01*
G75*
G02*
X97669500Y-109490192I-121976J-121976D01*
G01*
X97390192Y-109769500D01*
G75*
G02*
X97146240Y-109769500I-121976J121976D01*
G01*
X96902288Y-109525548D01*
G75*
G02*
X96902288Y-109281596I121976J121976D01*
G01*
G37*
G36*
G01*
X96216395Y-108595702D02*
X96495702Y-108316394D01*
G75*
G02*
X96739654Y-108316394I121976J-121976D01*
G01*
X96983606Y-108560346D01*
G75*
G02*
X96983606Y-108804298I-121976J-121976D01*
G01*
X96704298Y-109083606D01*
G75*
G02*
X96460346Y-109083606I-121976J121976D01*
G01*
X96216394Y-108839654D01*
G75*
G02*
X96216394Y-108595702I121976J121976D01*
G01*
G37*
%TD*%
%TO.C,R1*%
G36*
G01*
X98831250Y-106450000D02*
X98268750Y-106450000D01*
G75*
G02*
X98025000Y-106206250I0J243750D01*
G01*
X98025000Y-105718750D01*
G75*
G02*
X98268750Y-105475000I243750J0D01*
G01*
X98831250Y-105475000D01*
G75*
G02*
X99075000Y-105718750I0J-243750D01*
G01*
X99075000Y-106206250D01*
G75*
G02*
X98831250Y-106450000I-243750J0D01*
G01*
G37*
G36*
G01*
X98831250Y-108025000D02*
X98268750Y-108025000D01*
G75*
G02*
X98025000Y-107781250I0J243750D01*
G01*
X98025000Y-107293750D01*
G75*
G02*
X98268750Y-107050000I243750J0D01*
G01*
X98831250Y-107050000D01*
G75*
G02*
X99075000Y-107293750I0J-243750D01*
G01*
X99075000Y-107781250D01*
G75*
G02*
X98831250Y-108025000I-243750J0D01*
G01*
G37*
%TD*%
%TO.C,R16*%
G36*
G01*
X101461351Y-107109342D02*
X101740659Y-107388649D01*
G75*
G02*
X101740659Y-107632601I-121976J-121976D01*
G01*
X101496707Y-107876553D01*
G75*
G02*
X101252755Y-107876553I-121976J121976D01*
G01*
X100973447Y-107597245D01*
G75*
G02*
X100973447Y-107353293I121976J121976D01*
G01*
X101217399Y-107109341D01*
G75*
G02*
X101461351Y-107109341I121976J-121976D01*
G01*
G37*
G36*
G01*
X102147245Y-106423448D02*
X102426553Y-106702755D01*
G75*
G02*
X102426553Y-106946707I-121976J-121976D01*
G01*
X102182601Y-107190659D01*
G75*
G02*
X101938649Y-107190659I-121976J121976D01*
G01*
X101659341Y-106911351D01*
G75*
G02*
X101659341Y-106667399I121976J121976D01*
G01*
X101903293Y-106423447D01*
G75*
G02*
X102147245Y-106423447I121976J-121976D01*
G01*
G37*
%TD*%
%TO.C,R15*%
G36*
G01*
X100754298Y-106416395D02*
X101033606Y-106695702D01*
G75*
G02*
X101033606Y-106939654I-121976J-121976D01*
G01*
X100789654Y-107183606D01*
G75*
G02*
X100545702Y-107183606I-121976J121976D01*
G01*
X100266394Y-106904298D01*
G75*
G02*
X100266394Y-106660346I121976J121976D01*
G01*
X100510346Y-106416394D01*
G75*
G02*
X100754298Y-106416394I121976J-121976D01*
G01*
G37*
G36*
G01*
X101440192Y-105730501D02*
X101719500Y-106009808D01*
G75*
G02*
X101719500Y-106253760I-121976J-121976D01*
G01*
X101475548Y-106497712D01*
G75*
G02*
X101231596Y-106497712I-121976J121976D01*
G01*
X100952288Y-106218404D01*
G75*
G02*
X100952288Y-105974452I121976J121976D01*
G01*
X101196240Y-105730500D01*
G75*
G02*
X101440192Y-105730500I121976J-121976D01*
G01*
G37*
%TD*%
%TO.C,R10*%
G36*
G01*
X104752500Y-107875000D02*
X105147500Y-107875000D01*
G75*
G02*
X105320000Y-108047500I0J-172500D01*
G01*
X105320000Y-108392500D01*
G75*
G02*
X105147500Y-108565000I-172500J0D01*
G01*
X104752500Y-108565000D01*
G75*
G02*
X104580000Y-108392500I0J172500D01*
G01*
X104580000Y-108047500D01*
G75*
G02*
X104752500Y-107875000I172500J0D01*
G01*
G37*
G36*
G01*
X104752500Y-106905000D02*
X105147500Y-106905000D01*
G75*
G02*
X105320000Y-107077500I0J-172500D01*
G01*
X105320000Y-107422500D01*
G75*
G02*
X105147500Y-107595000I-172500J0D01*
G01*
X104752500Y-107595000D01*
G75*
G02*
X104580000Y-107422500I0J172500D01*
G01*
X104580000Y-107077500D01*
G75*
G02*
X104752500Y-106905000I172500J0D01*
G01*
G37*
%TD*%
%TO.C,R13*%
G36*
G01*
X95516395Y-109295702D02*
X95795702Y-109016394D01*
G75*
G02*
X96039654Y-109016394I121976J-121976D01*
G01*
X96283606Y-109260346D01*
G75*
G02*
X96283606Y-109504298I-121976J-121976D01*
G01*
X96004298Y-109783606D01*
G75*
G02*
X95760346Y-109783606I-121976J121976D01*
G01*
X95516394Y-109539654D01*
G75*
G02*
X95516394Y-109295702I121976J121976D01*
G01*
G37*
G36*
G01*
X96202289Y-109981596D02*
X96481596Y-109702288D01*
G75*
G02*
X96725548Y-109702288I121976J-121976D01*
G01*
X96969500Y-109946240D01*
G75*
G02*
X96969500Y-110190192I-121976J-121976D01*
G01*
X96690192Y-110469500D01*
G75*
G02*
X96446240Y-110469500I-121976J121976D01*
G01*
X96202288Y-110225548D01*
G75*
G02*
X96202288Y-109981596I121976J121976D01*
G01*
G37*
%TD*%
%TO.C,R12*%
G36*
G01*
X99697500Y-115345000D02*
X99302500Y-115345000D01*
G75*
G02*
X99130000Y-115172500I0J172500D01*
G01*
X99130000Y-114827500D01*
G75*
G02*
X99302500Y-114655000I172500J0D01*
G01*
X99697500Y-114655000D01*
G75*
G02*
X99870000Y-114827500I0J-172500D01*
G01*
X99870000Y-115172500D01*
G75*
G02*
X99697500Y-115345000I-172500J0D01*
G01*
G37*
G36*
G01*
X99697500Y-116315000D02*
X99302500Y-116315000D01*
G75*
G02*
X99130000Y-116142500I0J172500D01*
G01*
X99130000Y-115797500D01*
G75*
G02*
X99302500Y-115625000I172500J0D01*
G01*
X99697500Y-115625000D01*
G75*
G02*
X99870000Y-115797500I0J-172500D01*
G01*
X99870000Y-116142500D01*
G75*
G02*
X99697500Y-116315000I-172500J0D01*
G01*
G37*
%TD*%
%TO.C,R11*%
G36*
G01*
X100697500Y-115345000D02*
X100302500Y-115345000D01*
G75*
G02*
X100130000Y-115172500I0J172500D01*
G01*
X100130000Y-114827500D01*
G75*
G02*
X100302500Y-114655000I172500J0D01*
G01*
X100697500Y-114655000D01*
G75*
G02*
X100870000Y-114827500I0J-172500D01*
G01*
X100870000Y-115172500D01*
G75*
G02*
X100697500Y-115345000I-172500J0D01*
G01*
G37*
G36*
G01*
X100697500Y-116315000D02*
X100302500Y-116315000D01*
G75*
G02*
X100130000Y-116142500I0J172500D01*
G01*
X100130000Y-115797500D01*
G75*
G02*
X100302500Y-115625000I172500J0D01*
G01*
X100697500Y-115625000D01*
G75*
G02*
X100870000Y-115797500I0J-172500D01*
G01*
X100870000Y-116142500D01*
G75*
G02*
X100697500Y-116315000I-172500J0D01*
G01*
G37*
%TD*%
%TO.C,R9*%
G36*
G01*
X105147500Y-105695000D02*
X104752500Y-105695000D01*
G75*
G02*
X104580000Y-105522500I0J172500D01*
G01*
X104580000Y-105177500D01*
G75*
G02*
X104752500Y-105005000I172500J0D01*
G01*
X105147500Y-105005000D01*
G75*
G02*
X105320000Y-105177500I0J-172500D01*
G01*
X105320000Y-105522500D01*
G75*
G02*
X105147500Y-105695000I-172500J0D01*
G01*
G37*
G36*
G01*
X105147500Y-106665000D02*
X104752500Y-106665000D01*
G75*
G02*
X104580000Y-106492500I0J172500D01*
G01*
X104580000Y-106147500D01*
G75*
G02*
X104752500Y-105975000I172500J0D01*
G01*
X105147500Y-105975000D01*
G75*
G02*
X105320000Y-106147500I0J-172500D01*
G01*
X105320000Y-106492500D01*
G75*
G02*
X105147500Y-106665000I-172500J0D01*
G01*
G37*
%TD*%
%TO.C,R8*%
G36*
G01*
X96640000Y-106947500D02*
X96640000Y-106552500D01*
G75*
G02*
X96812500Y-106380000I172500J0D01*
G01*
X97157500Y-106380000D01*
G75*
G02*
X97330000Y-106552500I0J-172500D01*
G01*
X97330000Y-106947500D01*
G75*
G02*
X97157500Y-107120000I-172500J0D01*
G01*
X96812500Y-107120000D01*
G75*
G02*
X96640000Y-106947500I0J172500D01*
G01*
G37*
G36*
G01*
X95670000Y-106947500D02*
X95670000Y-106552500D01*
G75*
G02*
X95842500Y-106380000I172500J0D01*
G01*
X96187500Y-106380000D01*
G75*
G02*
X96360000Y-106552500I0J-172500D01*
G01*
X96360000Y-106947500D01*
G75*
G02*
X96187500Y-107120000I-172500J0D01*
G01*
X95842500Y-107120000D01*
G75*
G02*
X95670000Y-106947500I0J172500D01*
G01*
G37*
%TD*%
%TO.C,R7*%
G36*
G01*
X94460000Y-106552500D02*
X94460000Y-106947500D01*
G75*
G02*
X94287500Y-107120000I-172500J0D01*
G01*
X93942500Y-107120000D01*
G75*
G02*
X93770000Y-106947500I0J172500D01*
G01*
X93770000Y-106552500D01*
G75*
G02*
X93942500Y-106380000I172500J0D01*
G01*
X94287500Y-106380000D01*
G75*
G02*
X94460000Y-106552500I0J-172500D01*
G01*
G37*
G36*
G01*
X95430000Y-106552500D02*
X95430000Y-106947500D01*
G75*
G02*
X95257500Y-107120000I-172500J0D01*
G01*
X94912500Y-107120000D01*
G75*
G02*
X94740000Y-106947500I0J172500D01*
G01*
X94740000Y-106552500D01*
G75*
G02*
X94912500Y-106380000I172500J0D01*
G01*
X95257500Y-106380000D01*
G75*
G02*
X95430000Y-106552500I0J-172500D01*
G01*
G37*
%TD*%
%TO.C,R6*%
G36*
G01*
X98925000Y-116902500D02*
X98925000Y-117297500D01*
G75*
G02*
X98752500Y-117470000I-172500J0D01*
G01*
X98407500Y-117470000D01*
G75*
G02*
X98235000Y-117297500I0J172500D01*
G01*
X98235000Y-116902500D01*
G75*
G02*
X98407500Y-116730000I172500J0D01*
G01*
X98752500Y-116730000D01*
G75*
G02*
X98925000Y-116902500I0J-172500D01*
G01*
G37*
G36*
G01*
X99895000Y-116902500D02*
X99895000Y-117297500D01*
G75*
G02*
X99722500Y-117470000I-172500J0D01*
G01*
X99377500Y-117470000D01*
G75*
G02*
X99205000Y-117297500I0J172500D01*
G01*
X99205000Y-116902500D01*
G75*
G02*
X99377500Y-116730000I172500J0D01*
G01*
X99722500Y-116730000D01*
G75*
G02*
X99895000Y-116902500I0J-172500D01*
G01*
G37*
%TD*%
%TO.C,R5*%
G36*
G01*
X101075000Y-117297500D02*
X101075000Y-116902500D01*
G75*
G02*
X101247500Y-116730000I172500J0D01*
G01*
X101592500Y-116730000D01*
G75*
G02*
X101765000Y-116902500I0J-172500D01*
G01*
X101765000Y-117297500D01*
G75*
G02*
X101592500Y-117470000I-172500J0D01*
G01*
X101247500Y-117470000D01*
G75*
G02*
X101075000Y-117297500I0J172500D01*
G01*
G37*
G36*
G01*
X100105000Y-117297500D02*
X100105000Y-116902500D01*
G75*
G02*
X100277500Y-116730000I172500J0D01*
G01*
X100622500Y-116730000D01*
G75*
G02*
X100795000Y-116902500I0J-172500D01*
G01*
X100795000Y-117297500D01*
G75*
G02*
X100622500Y-117470000I-172500J0D01*
G01*
X100277500Y-117470000D01*
G75*
G02*
X100105000Y-117297500I0J172500D01*
G01*
G37*
%TD*%
D11*
%TO.C,J7*%
X138650000Y-120200000D03*
X141190000Y-120200000D03*
X138650000Y-122740000D03*
X141190000Y-122740000D03*
X138650000Y-125280000D03*
X141190000Y-125280000D03*
X141190000Y-127820000D03*
%TD*%
D12*
%TO.C,J2*%
X151910000Y-98600000D03*
D13*
X150100000Y-97350000D03*
X150100000Y-99850000D03*
X149100000Y-95350000D03*
X149100000Y-101850000D03*
X148100000Y-97350000D03*
X148100000Y-99850000D03*
X147100000Y-95350000D03*
X147100000Y-101850000D03*
X146100000Y-97350000D03*
X146100000Y-99850000D03*
X145100000Y-95350000D03*
X145100000Y-101850000D03*
X144100000Y-97350000D03*
X144100000Y-99850000D03*
X143100000Y-95350000D03*
X143100000Y-101850000D03*
X142100000Y-97350000D03*
X142100000Y-99850000D03*
X141100000Y-95350000D03*
X141100000Y-101850000D03*
X140100000Y-97350000D03*
X140100000Y-99850000D03*
X139100000Y-95350000D03*
X139100000Y-101850000D03*
X138100000Y-97350000D03*
X138100000Y-99850000D03*
X137100000Y-95350000D03*
X137100000Y-101850000D03*
X136100000Y-97350000D03*
X136100000Y-99850000D03*
X135100000Y-95350000D03*
X135100000Y-101850000D03*
X134100000Y-97350000D03*
X134100000Y-99850000D03*
X133100000Y-95350000D03*
X133100000Y-101850000D03*
X132100000Y-97350000D03*
X132100000Y-99850000D03*
X131100000Y-95350000D03*
X131100000Y-101850000D03*
X130100000Y-97350000D03*
X130100000Y-99850000D03*
X129100000Y-95350000D03*
X129100000Y-101850000D03*
X128100000Y-97350000D03*
X128100000Y-99850000D03*
X127100000Y-95350000D03*
X127100000Y-101850000D03*
X126100000Y-97350000D03*
X126100000Y-99850000D03*
X125100000Y-95350000D03*
X125100000Y-101850000D03*
X124100000Y-97350000D03*
X124100000Y-99850000D03*
X123100000Y-95350000D03*
X123100000Y-101850000D03*
X122100000Y-97350000D03*
X122100000Y-99850000D03*
X121100000Y-95350000D03*
X121100000Y-101850000D03*
X120100000Y-97350000D03*
X120100000Y-99850000D03*
X119100000Y-95350000D03*
X119100000Y-101850000D03*
X118100000Y-97350000D03*
X118100000Y-99850000D03*
X117100000Y-95350000D03*
X117100000Y-101850000D03*
X116100000Y-97350000D03*
X116100000Y-99850000D03*
X115100000Y-95350000D03*
X115100000Y-101850000D03*
X114100000Y-97350000D03*
X114100000Y-99850000D03*
X113100000Y-95350000D03*
X113100000Y-101850000D03*
D12*
X111750000Y-98600000D03*
D13*
X110100000Y-99850000D03*
X109100000Y-101850000D03*
X108100000Y-99850000D03*
X107100000Y-101850000D03*
X106100000Y-99850000D03*
X105100000Y-101850000D03*
X104100000Y-99850000D03*
X103100000Y-101850000D03*
X102100000Y-99850000D03*
X101100000Y-101850000D03*
X100100000Y-99850000D03*
X110100000Y-97350000D03*
X109100000Y-95350000D03*
X108100000Y-97350000D03*
X107100000Y-95350000D03*
X106100000Y-97350000D03*
X105100000Y-95350000D03*
X104100000Y-97350000D03*
X103100000Y-95350000D03*
X102100000Y-97350000D03*
X101100000Y-95350000D03*
X100100000Y-97350000D03*
%TD*%
D11*
%TO.C,J6*%
X94810000Y-120200000D03*
X94810000Y-122740000D03*
X92270000Y-120200000D03*
X92270000Y-122740000D03*
X89730000Y-120200000D03*
X89730000Y-122740000D03*
X87190000Y-120200000D03*
X87190000Y-122740000D03*
X84650000Y-120200000D03*
D14*
X84650000Y-122740000D03*
%TD*%
%TO.C,R4*%
G36*
G01*
X176612500Y-97831250D02*
X176612500Y-97268750D01*
G75*
G02*
X176856250Y-97025000I243750J0D01*
G01*
X177343750Y-97025000D01*
G75*
G02*
X177587500Y-97268750I0J-243750D01*
G01*
X177587500Y-97831250D01*
G75*
G02*
X177343750Y-98075000I-243750J0D01*
G01*
X176856250Y-98075000D01*
G75*
G02*
X176612500Y-97831250I0J243750D01*
G01*
G37*
G36*
G01*
X175037500Y-97831250D02*
X175037500Y-97268750D01*
G75*
G02*
X175281250Y-97025000I243750J0D01*
G01*
X175768750Y-97025000D01*
G75*
G02*
X176012500Y-97268750I0J-243750D01*
G01*
X176012500Y-97831250D01*
G75*
G02*
X175768750Y-98075000I-243750J0D01*
G01*
X175281250Y-98075000D01*
G75*
G02*
X175037500Y-97831250I0J243750D01*
G01*
G37*
%TD*%
D15*
%TO.C,J3*%
X176750000Y-102440000D03*
D11*
X176750000Y-99900000D03*
%TD*%
%TO.C,R3*%
G36*
G01*
X157462500Y-101868750D02*
X157462500Y-102431250D01*
G75*
G02*
X157218750Y-102675000I-243750J0D01*
G01*
X156731250Y-102675000D01*
G75*
G02*
X156487500Y-102431250I0J243750D01*
G01*
X156487500Y-101868750D01*
G75*
G02*
X156731250Y-101625000I243750J0D01*
G01*
X157218750Y-101625000D01*
G75*
G02*
X157462500Y-101868750I0J-243750D01*
G01*
G37*
G36*
G01*
X159037500Y-101868750D02*
X159037500Y-102431250D01*
G75*
G02*
X158793750Y-102675000I-243750J0D01*
G01*
X158306250Y-102675000D01*
G75*
G02*
X158062500Y-102431250I0J243750D01*
G01*
X158062500Y-101868750D01*
G75*
G02*
X158306250Y-101625000I243750J0D01*
G01*
X158793750Y-101625000D01*
G75*
G02*
X159037500Y-101868750I0J-243750D01*
G01*
G37*
%TD*%
%TO.C,C7*%
G36*
G01*
X170175000Y-103255000D02*
X170175000Y-101945000D01*
G75*
G02*
X170445000Y-101675000I270000J0D01*
G01*
X171255000Y-101675000D01*
G75*
G02*
X171525000Y-101945000I0J-270000D01*
G01*
X171525000Y-103255000D01*
G75*
G02*
X171255000Y-103525000I-270000J0D01*
G01*
X170445000Y-103525000D01*
G75*
G02*
X170175000Y-103255000I0J270000D01*
G01*
G37*
G36*
G01*
X167375000Y-103255000D02*
X167375000Y-101945000D01*
G75*
G02*
X167645000Y-101675000I270000J0D01*
G01*
X168455000Y-101675000D01*
G75*
G02*
X168725000Y-101945000I0J-270000D01*
G01*
X168725000Y-103255000D01*
G75*
G02*
X168455000Y-103525000I-270000J0D01*
G01*
X167645000Y-103525000D01*
G75*
G02*
X167375000Y-103255000I0J270000D01*
G01*
G37*
%TD*%
%TO.C,C6*%
G36*
G01*
X83325000Y-127355000D02*
X83325000Y-126045000D01*
G75*
G02*
X83595000Y-125775000I270000J0D01*
G01*
X84405000Y-125775000D01*
G75*
G02*
X84675000Y-126045000I0J-270000D01*
G01*
X84675000Y-127355000D01*
G75*
G02*
X84405000Y-127625000I-270000J0D01*
G01*
X83595000Y-127625000D01*
G75*
G02*
X83325000Y-127355000I0J270000D01*
G01*
G37*
G36*
G01*
X80525000Y-127355000D02*
X80525000Y-126045000D01*
G75*
G02*
X80795000Y-125775000I270000J0D01*
G01*
X81605000Y-125775000D01*
G75*
G02*
X81875000Y-126045000I0J-270000D01*
G01*
X81875000Y-127355000D01*
G75*
G02*
X81605000Y-127625000I-270000J0D01*
G01*
X80795000Y-127625000D01*
G75*
G02*
X80525000Y-127355000I0J270000D01*
G01*
G37*
%TD*%
%TO.C,C2*%
G36*
G01*
X95900000Y-113168750D02*
X95900000Y-114131250D01*
G75*
G02*
X95631250Y-114400000I-268750J0D01*
G01*
X95093750Y-114400000D01*
G75*
G02*
X94825000Y-114131250I0J268750D01*
G01*
X94825000Y-113168750D01*
G75*
G02*
X95093750Y-112900000I268750J0D01*
G01*
X95631250Y-112900000D01*
G75*
G02*
X95900000Y-113168750I0J-268750D01*
G01*
G37*
G36*
G01*
X97775000Y-113168750D02*
X97775000Y-114131250D01*
G75*
G02*
X97506250Y-114400000I-268750J0D01*
G01*
X96968750Y-114400000D01*
G75*
G02*
X96700000Y-114131250I0J268750D01*
G01*
X96700000Y-113168750D01*
G75*
G02*
X96968750Y-112900000I268750J0D01*
G01*
X97506250Y-112900000D01*
G75*
G02*
X97775000Y-113168750I0J-268750D01*
G01*
G37*
%TD*%
%TO.C,C1*%
G36*
G01*
X81875000Y-129295000D02*
X81875000Y-130605000D01*
G75*
G02*
X81605000Y-130875000I-270000J0D01*
G01*
X80795000Y-130875000D01*
G75*
G02*
X80525000Y-130605000I0J270000D01*
G01*
X80525000Y-129295000D01*
G75*
G02*
X80795000Y-129025000I270000J0D01*
G01*
X81605000Y-129025000D01*
G75*
G02*
X81875000Y-129295000I0J-270000D01*
G01*
G37*
G36*
G01*
X84675000Y-129295000D02*
X84675000Y-130605000D01*
G75*
G02*
X84405000Y-130875000I-270000J0D01*
G01*
X83595000Y-130875000D01*
G75*
G02*
X83325000Y-130605000I0J270000D01*
G01*
X83325000Y-129295000D01*
G75*
G02*
X83595000Y-129025000I270000J0D01*
G01*
X84405000Y-129025000D01*
G75*
G02*
X84675000Y-129295000I0J-270000D01*
G01*
G37*
%TD*%
%TO.C,FB1*%
G36*
G01*
X95900000Y-115168750D02*
X95900000Y-116131250D01*
G75*
G02*
X95631250Y-116400000I-268750J0D01*
G01*
X95093750Y-116400000D01*
G75*
G02*
X94825000Y-116131250I0J268750D01*
G01*
X94825000Y-115168750D01*
G75*
G02*
X95093750Y-114900000I268750J0D01*
G01*
X95631250Y-114900000D01*
G75*
G02*
X95900000Y-115168750I0J-268750D01*
G01*
G37*
G36*
G01*
X97775000Y-115168750D02*
X97775000Y-116131250D01*
G75*
G02*
X97506250Y-116400000I-268750J0D01*
G01*
X96968750Y-116400000D01*
G75*
G02*
X96700000Y-116131250I0J268750D01*
G01*
X96700000Y-115168750D01*
G75*
G02*
X96968750Y-114900000I268750J0D01*
G01*
X97506250Y-114900000D01*
G75*
G02*
X97775000Y-115168750I0J-268750D01*
G01*
G37*
%TD*%
%TO.C,C5*%
G36*
G01*
X96200000Y-111618750D02*
X96200000Y-112181250D01*
G75*
G02*
X95956250Y-112425000I-243750J0D01*
G01*
X95468750Y-112425000D01*
G75*
G02*
X95225000Y-112181250I0J243750D01*
G01*
X95225000Y-111618750D01*
G75*
G02*
X95468750Y-111375000I243750J0D01*
G01*
X95956250Y-111375000D01*
G75*
G02*
X96200000Y-111618750I0J-243750D01*
G01*
G37*
G36*
G01*
X97775000Y-111618750D02*
X97775000Y-112181250D01*
G75*
G02*
X97531250Y-112425000I-243750J0D01*
G01*
X97043750Y-112425000D01*
G75*
G02*
X96800000Y-112181250I0J243750D01*
G01*
X96800000Y-111618750D01*
G75*
G02*
X97043750Y-111375000I243750J0D01*
G01*
X97531250Y-111375000D01*
G75*
G02*
X97775000Y-111618750I0J-243750D01*
G01*
G37*
%TD*%
%TO.C,C3*%
G36*
G01*
X105200000Y-112181250D02*
X105200000Y-111618750D01*
G75*
G02*
X105443750Y-111375000I243750J0D01*
G01*
X105931250Y-111375000D01*
G75*
G02*
X106175000Y-111618750I0J-243750D01*
G01*
X106175000Y-112181250D01*
G75*
G02*
X105931250Y-112425000I-243750J0D01*
G01*
X105443750Y-112425000D01*
G75*
G02*
X105200000Y-112181250I0J243750D01*
G01*
G37*
G36*
G01*
X103625000Y-112181250D02*
X103625000Y-111618750D01*
G75*
G02*
X103868750Y-111375000I243750J0D01*
G01*
X104356250Y-111375000D01*
G75*
G02*
X104600000Y-111618750I0J-243750D01*
G01*
X104600000Y-112181250D01*
G75*
G02*
X104356250Y-112425000I-243750J0D01*
G01*
X103868750Y-112425000D01*
G75*
G02*
X103625000Y-112181250I0J243750D01*
G01*
G37*
%TD*%
%TO.C,C4*%
G36*
G01*
X105187500Y-109681250D02*
X105187500Y-109118750D01*
G75*
G02*
X105431250Y-108875000I243750J0D01*
G01*
X105918750Y-108875000D01*
G75*
G02*
X106162500Y-109118750I0J-243750D01*
G01*
X106162500Y-109681250D01*
G75*
G02*
X105918750Y-109925000I-243750J0D01*
G01*
X105431250Y-109925000D01*
G75*
G02*
X105187500Y-109681250I0J243750D01*
G01*
G37*
G36*
G01*
X103612500Y-109681250D02*
X103612500Y-109118750D01*
G75*
G02*
X103856250Y-108875000I243750J0D01*
G01*
X104343750Y-108875000D01*
G75*
G02*
X104587500Y-109118750I0J-243750D01*
G01*
X104587500Y-109681250D01*
G75*
G02*
X104343750Y-109925000I-243750J0D01*
G01*
X103856250Y-109925000D01*
G75*
G02*
X103612500Y-109681250I0J243750D01*
G01*
G37*
%TD*%
D16*
%TO.C,J8*%
X120650000Y-122200000D03*
X121281570Y-122200000D03*
X121913140Y-122200000D03*
X122544710Y-122200000D03*
X123176280Y-122200000D03*
X123807850Y-122200000D03*
X124439420Y-122200000D03*
X125070990Y-122200000D03*
X125702560Y-122200000D03*
X126334130Y-122200000D03*
X126965700Y-122200000D03*
X127597270Y-122200000D03*
X128228840Y-122200000D03*
X128860410Y-122200000D03*
X129491980Y-122200000D03*
X130123550Y-122200000D03*
X130755120Y-122200000D03*
X131386690Y-122200000D03*
X132018260Y-122200000D03*
X132649830Y-122200000D03*
%TD*%
%TO.C,J5*%
X106650000Y-122200000D03*
X107281570Y-122200000D03*
X107913140Y-122200000D03*
X108544710Y-122200000D03*
X109176280Y-122200000D03*
X109807850Y-122200000D03*
X110439420Y-122200000D03*
X111070990Y-122200000D03*
X111702560Y-122200000D03*
X112334130Y-122200000D03*
X112965700Y-122200000D03*
X113597270Y-122200000D03*
X114228840Y-122200000D03*
X114860410Y-122200000D03*
X115491980Y-122200000D03*
X116123550Y-122200000D03*
X116755120Y-122200000D03*
X117386690Y-122200000D03*
X118018260Y-122200000D03*
X118649830Y-122200000D03*
%TD*%
D17*
%TO.C,J1*%
X110000000Y-138500000D03*
D18*
X109000000Y-138000000D03*
D17*
X108000000Y-138500000D03*
X107000000Y-138500000D03*
X106000000Y-138500000D03*
X105000000Y-138500000D03*
X104000000Y-138500000D03*
X103000000Y-138500000D03*
X102000000Y-138500000D03*
X101000000Y-138500000D03*
X100000000Y-138500000D03*
X99000000Y-138500000D03*
X98000000Y-138500000D03*
X97000000Y-138500000D03*
X96000000Y-138500000D03*
D18*
X95000000Y-138000000D03*
D17*
X94000000Y-138500000D03*
X93000000Y-138500000D03*
X92000000Y-138500000D03*
X91000000Y-138500000D03*
X90000000Y-138500000D03*
X87000000Y-138500000D03*
X86000000Y-138500000D03*
X85000000Y-138500000D03*
X84000000Y-138500000D03*
X83000000Y-138500000D03*
X82000000Y-138500000D03*
X81000000Y-138500000D03*
X80000000Y-138500000D03*
X79000000Y-138500000D03*
X78000000Y-138500000D03*
X77000000Y-138500000D03*
X111000000Y-138500000D03*
X112000000Y-138500000D03*
X113000000Y-138500000D03*
X114000000Y-138500000D03*
X115000000Y-138500000D03*
X116000000Y-138500000D03*
X117000000Y-138500000D03*
X118000000Y-138500000D03*
X119000000Y-138500000D03*
X120000000Y-138500000D03*
X121000000Y-138500000D03*
X122000000Y-138500000D03*
X123000000Y-138500000D03*
X124000000Y-138500000D03*
X125000000Y-138500000D03*
D18*
X126000000Y-138000000D03*
D17*
X127000000Y-138500000D03*
X128000000Y-138500000D03*
X129000000Y-138500000D03*
X130000000Y-138500000D03*
X131000000Y-138500000D03*
X132000000Y-138500000D03*
X133000000Y-138500000D03*
X134000000Y-138500000D03*
X135000000Y-138500000D03*
X136000000Y-138500000D03*
X137000000Y-138500000D03*
X138000000Y-138500000D03*
X139000000Y-138500000D03*
X140000000Y-138500000D03*
X141000000Y-138500000D03*
X142000000Y-138500000D03*
X143000000Y-138500000D03*
X144000000Y-138500000D03*
X145000000Y-138500000D03*
X146000000Y-138500000D03*
X147000000Y-138500000D03*
X148000000Y-138500000D03*
X149000000Y-138500000D03*
X150000000Y-138500000D03*
X151000000Y-138500000D03*
X152000000Y-138500000D03*
X153000000Y-138500000D03*
X154000000Y-138500000D03*
X155000000Y-138500000D03*
X156000000Y-138500000D03*
X157000000Y-138500000D03*
X158000000Y-138500000D03*
D18*
X159000000Y-138000000D03*
D17*
X160000000Y-138500000D03*
%TD*%
D19*
%TO.C,REF\u002A\u002A*%
X88150000Y-109200000D03*
%TD*%
D20*
%TO.C,REF\u002A\u002A*%
X78300000Y-119500000D03*
%TD*%
%TO.C,REF\u002A\u002A*%
X78300000Y-98350000D03*
%TD*%
D21*
%TO.C,J4*%
X166400000Y-99200000D03*
D22*
X166400000Y-119200000D03*
%TD*%
D23*
G36*
X87550000Y-142000000D02*
G01*
X87177000Y-142373000D01*
X76723000Y-142373000D01*
X76477000Y-142127000D01*
X76477000Y-136527000D01*
X87550000Y-136527000D01*
X87550000Y-142000000D01*
G37*
X87550000Y-142000000D02*
X87177000Y-142373000D01*
X76723000Y-142373000D01*
X76477000Y-142127000D01*
X76477000Y-136527000D01*
X87550000Y-136527000D01*
X87550000Y-142000000D01*
G36*
X160523000Y-142127000D02*
G01*
X160277000Y-142373000D01*
X89823000Y-142373000D01*
X89450000Y-142000000D01*
X89450000Y-136527000D01*
X160523000Y-136527000D01*
X160523000Y-142127000D01*
G37*
X160523000Y-142127000D02*
X160277000Y-142373000D01*
X89823000Y-142373000D01*
X89450000Y-142000000D01*
X89450000Y-136527000D01*
X160523000Y-136527000D01*
X160523000Y-142127000D01*
M02*
