%TF.GenerationSoftware,KiCad,Pcbnew,(5.1.6)-1*%
%TF.CreationDate,2021-07-09T16:03:55+01:00*%
%TF.ProjectId,t9120riser,74393132-3072-4697-9365-722e6b696361,rev?*%
%TF.SameCoordinates,Original*%
%TF.FileFunction,Soldermask,Bot*%
%TF.FilePolarity,Negative*%
%FSLAX46Y46*%
G04 Gerber Fmt 4.6, Leading zero omitted, Abs format (unit mm)*
G04 Created by KiCad (PCBNEW (5.1.6)-1) date 2021-07-09 16:03:55*
%MOMM*%
%LPD*%
G01*
G04 APERTURE LIST*
%ADD10O,1.800000X1.800000*%
%ADD11C,2.450000*%
%ADD12C,1.100000*%
%ADD13C,1.800000*%
%ADD14R,1.800000X1.800000*%
%ADD15R,0.800000X4.300000*%
%ADD16R,0.800000X3.300000*%
%ADD17C,6.100000*%
%ADD18C,6.600000*%
%ADD19R,2.850000X1.300000*%
%ADD20C,1.750000*%
%ADD21C,1.250000*%
%ADD22R,1.650000X0.400000*%
%ADD23C,0.254000*%
G04 APERTURE END LIST*
D10*
%TO.C,J7*%
X138650000Y-120200000D03*
X141190000Y-120200000D03*
X138650000Y-122740000D03*
X141190000Y-122740000D03*
X138650000Y-125280000D03*
X141190000Y-125280000D03*
X141190000Y-127820000D03*
%TD*%
D11*
%TO.C,J2*%
X151910000Y-98600000D03*
D12*
X150100000Y-97350000D03*
X150100000Y-99850000D03*
X149100000Y-95350000D03*
X149100000Y-101850000D03*
X148100000Y-97350000D03*
X148100000Y-99850000D03*
X147100000Y-95350000D03*
X147100000Y-101850000D03*
X146100000Y-97350000D03*
X146100000Y-99850000D03*
X145100000Y-95350000D03*
X145100000Y-101850000D03*
X144100000Y-97350000D03*
X144100000Y-99850000D03*
X143100000Y-95350000D03*
X143100000Y-101850000D03*
X142100000Y-97350000D03*
X142100000Y-99850000D03*
X141100000Y-95350000D03*
X141100000Y-101850000D03*
X140100000Y-97350000D03*
X140100000Y-99850000D03*
X139100000Y-95350000D03*
X139100000Y-101850000D03*
X138100000Y-97350000D03*
X138100000Y-99850000D03*
X137100000Y-95350000D03*
X137100000Y-101850000D03*
X136100000Y-97350000D03*
X136100000Y-99850000D03*
X135100000Y-95350000D03*
X135100000Y-101850000D03*
X134100000Y-97350000D03*
X134100000Y-99850000D03*
X133100000Y-95350000D03*
X133100000Y-101850000D03*
X132100000Y-97350000D03*
X132100000Y-99850000D03*
X131100000Y-95350000D03*
X131100000Y-101850000D03*
X130100000Y-97350000D03*
X130100000Y-99850000D03*
X129100000Y-95350000D03*
X129100000Y-101850000D03*
X128100000Y-97350000D03*
X128100000Y-99850000D03*
X127100000Y-95350000D03*
X127100000Y-101850000D03*
X126100000Y-97350000D03*
X126100000Y-99850000D03*
X125100000Y-95350000D03*
X125100000Y-101850000D03*
X124100000Y-97350000D03*
X124100000Y-99850000D03*
X123100000Y-95350000D03*
X123100000Y-101850000D03*
X122100000Y-97350000D03*
X122100000Y-99850000D03*
X121100000Y-95350000D03*
X121100000Y-101850000D03*
X120100000Y-97350000D03*
X120100000Y-99850000D03*
X119100000Y-95350000D03*
X119100000Y-101850000D03*
X118100000Y-97350000D03*
X118100000Y-99850000D03*
X117100000Y-95350000D03*
X117100000Y-101850000D03*
X116100000Y-97350000D03*
X116100000Y-99850000D03*
X115100000Y-95350000D03*
X115100000Y-101850000D03*
X114100000Y-97350000D03*
X114100000Y-99850000D03*
X113100000Y-95350000D03*
X113100000Y-101850000D03*
D11*
X111750000Y-98600000D03*
D12*
X110100000Y-99850000D03*
X109100000Y-101850000D03*
X108100000Y-99850000D03*
X107100000Y-101850000D03*
X106100000Y-99850000D03*
X105100000Y-101850000D03*
X104100000Y-99850000D03*
X103100000Y-101850000D03*
X102100000Y-99850000D03*
X101100000Y-101850000D03*
X100100000Y-99850000D03*
X110100000Y-97350000D03*
X109100000Y-95350000D03*
X108100000Y-97350000D03*
X107100000Y-95350000D03*
X106100000Y-97350000D03*
X105100000Y-95350000D03*
X104100000Y-97350000D03*
X103100000Y-95350000D03*
X102100000Y-97350000D03*
X101100000Y-95350000D03*
X100100000Y-97350000D03*
%TD*%
D10*
%TO.C,J6*%
X94810000Y-120200000D03*
X94810000Y-122740000D03*
X92270000Y-120200000D03*
X92270000Y-122740000D03*
X89730000Y-120200000D03*
X89730000Y-122740000D03*
X87190000Y-120200000D03*
X87190000Y-122740000D03*
X84650000Y-120200000D03*
D13*
X84650000Y-122740000D03*
%TD*%
D14*
%TO.C,J3*%
X176750000Y-102440000D03*
D10*
X176750000Y-99900000D03*
%TD*%
D15*
%TO.C,J1*%
X110000000Y-138500000D03*
X109000000Y-138500000D03*
X108000000Y-138500000D03*
X107000000Y-138500000D03*
X106000000Y-138500000D03*
X105000000Y-138500000D03*
X104000000Y-138500000D03*
X103000000Y-138500000D03*
X102000000Y-138500000D03*
X101000000Y-138500000D03*
X100000000Y-138500000D03*
X99000000Y-138500000D03*
X98000000Y-138500000D03*
X97000000Y-138500000D03*
X96000000Y-138500000D03*
X95000000Y-138500000D03*
X94000000Y-138500000D03*
X93000000Y-138500000D03*
X92000000Y-138500000D03*
X91000000Y-138500000D03*
X90000000Y-138500000D03*
X87000000Y-138500000D03*
X86000000Y-138500000D03*
X85000000Y-138500000D03*
X84000000Y-138500000D03*
X83000000Y-138500000D03*
X82000000Y-138500000D03*
X81000000Y-138500000D03*
X80000000Y-138500000D03*
X79000000Y-138500000D03*
X78000000Y-138500000D03*
D16*
X77000000Y-138000000D03*
D15*
X111000000Y-138500000D03*
X112000000Y-138500000D03*
X113000000Y-138500000D03*
X114000000Y-138500000D03*
X115000000Y-138500000D03*
X116000000Y-138500000D03*
X117000000Y-138500000D03*
X118000000Y-138500000D03*
X119000000Y-138500000D03*
X120000000Y-138500000D03*
X121000000Y-138500000D03*
X122000000Y-138500000D03*
X123000000Y-138500000D03*
X124000000Y-138500000D03*
X125000000Y-138500000D03*
X126000000Y-138500000D03*
X127000000Y-138500000D03*
X128000000Y-138500000D03*
X129000000Y-138500000D03*
X130000000Y-138500000D03*
X131000000Y-138500000D03*
X132000000Y-138500000D03*
X133000000Y-138500000D03*
X134000000Y-138500000D03*
X135000000Y-138500000D03*
X136000000Y-138500000D03*
X137000000Y-138500000D03*
X138000000Y-138500000D03*
X139000000Y-138500000D03*
X140000000Y-138500000D03*
X141000000Y-138500000D03*
X142000000Y-138500000D03*
X143000000Y-138500000D03*
X144000000Y-138500000D03*
X145000000Y-138500000D03*
X146000000Y-138500000D03*
X147000000Y-138500000D03*
X148000000Y-138500000D03*
X149000000Y-138500000D03*
X150000000Y-138500000D03*
X151000000Y-138500000D03*
X152000000Y-138500000D03*
X153000000Y-138500000D03*
X154000000Y-138500000D03*
X155000000Y-138500000D03*
X156000000Y-138500000D03*
X157000000Y-138500000D03*
X158000000Y-138500000D03*
X159000000Y-138500000D03*
X160000000Y-138500000D03*
%TD*%
D17*
%TO.C,REF\u002A\u002A*%
X88150000Y-109200000D03*
%TD*%
D18*
%TO.C,REF\u002A\u002A*%
X78300000Y-119500000D03*
%TD*%
%TO.C,REF\u002A\u002A*%
X78300000Y-98350000D03*
%TD*%
D19*
%TO.C,J4*%
X170900000Y-98700000D03*
X170900000Y-119950000D03*
D20*
X166400000Y-99200000D03*
D21*
X166400000Y-119200000D03*
D22*
X171675000Y-99950000D03*
X164125000Y-100200000D03*
X171675000Y-100450000D03*
X164125000Y-100700000D03*
X171675000Y-100950000D03*
X164125000Y-101200000D03*
X171675000Y-101450000D03*
X164125000Y-101700000D03*
X171675000Y-101950000D03*
X164125000Y-104200000D03*
X171675000Y-104450000D03*
X164125000Y-104700000D03*
X171675000Y-104950000D03*
X164125000Y-105200000D03*
X171675000Y-105450000D03*
X164125000Y-105700000D03*
X171675000Y-105950000D03*
X164125000Y-106200000D03*
X171675000Y-106450000D03*
X164125000Y-106700000D03*
X171675000Y-106950000D03*
X164125000Y-107200000D03*
X171675000Y-107450000D03*
X164125000Y-107700000D03*
X171675000Y-107950000D03*
X164125000Y-108200000D03*
X171675000Y-108450000D03*
X164125000Y-108700000D03*
X171675000Y-108950000D03*
X164125000Y-109200000D03*
X171675000Y-109450000D03*
X164125000Y-109700000D03*
X171675000Y-109950000D03*
X164125000Y-110200000D03*
X171675000Y-110450000D03*
X164125000Y-110700000D03*
X171675000Y-110950000D03*
X164125000Y-111200000D03*
X171675000Y-111450000D03*
X164125000Y-111700000D03*
X171675000Y-111950000D03*
X164125000Y-112200000D03*
X171675000Y-112450000D03*
X164125000Y-112700000D03*
X171675000Y-112950000D03*
X164125000Y-113200000D03*
X171675000Y-113450000D03*
X164125000Y-113700000D03*
X171675000Y-113950000D03*
X164125000Y-114200000D03*
X171675000Y-114450000D03*
X164125000Y-114700000D03*
X171675000Y-114950000D03*
X164125000Y-115200000D03*
X171675000Y-115450000D03*
X164125000Y-115700000D03*
X171675000Y-115950000D03*
X164125000Y-116200000D03*
X171675000Y-116450000D03*
X164125000Y-116700000D03*
X171675000Y-116950000D03*
X164125000Y-117200000D03*
X171675000Y-117450000D03*
X164125000Y-117700000D03*
X171675000Y-117950000D03*
X164125000Y-118200000D03*
X171675000Y-118450000D03*
%TD*%
D23*
G36*
X87550000Y-142000000D02*
G01*
X87177000Y-142373000D01*
X76723000Y-142373000D01*
X76477000Y-142127000D01*
X76477000Y-136527000D01*
X87550000Y-136527000D01*
X87550000Y-142000000D01*
G37*
X87550000Y-142000000D02*
X87177000Y-142373000D01*
X76723000Y-142373000D01*
X76477000Y-142127000D01*
X76477000Y-136527000D01*
X87550000Y-136527000D01*
X87550000Y-142000000D01*
G36*
X160523000Y-142127000D02*
G01*
X160277000Y-142373000D01*
X89823000Y-142373000D01*
X89450000Y-142000000D01*
X89450000Y-136527000D01*
X160523000Y-136527000D01*
X160523000Y-142127000D01*
G37*
X160523000Y-142127000D02*
X160277000Y-142373000D01*
X89823000Y-142373000D01*
X89450000Y-142000000D01*
X89450000Y-136527000D01*
X160523000Y-136527000D01*
X160523000Y-142127000D01*
M02*
