M48
; DRILL file {KiCad (5.1.6)-1} date 07/09/21 16:04:01
; FORMAT={-:-/ absolute / inch / decimal}
; #@! TF.CreationDate,2021-07-09T16:04:01+01:00
; #@! TF.GenerationSoftware,Kicad,Pcbnew,(5.1.6)-1
; #@! TF.FileFunction,Plated,1,4,PTH
FMAT,2
INCH
T1C0.0118
T2C0.0157
T3C0.0276
T4C0.0394
T5C0.1378
T6C0.1457
%
G90
G05
T1
X3.6259Y-5.2933
X3.6575Y-5.2933
X3.8228Y-5.2933
X3.8544Y-5.2933
X3.9419Y-4.3415
X3.9419Y-4.3907
X3.9803Y-4.4961
X3.9803Y-5.2933
X3.9911Y-4.3415
X3.9911Y-4.3907
X4.0119Y-4.4961
X4.0119Y-5.2933
X4.1377Y-5.2933
X4.1694Y-5.2933
X4.374Y-5.2933
X4.4056Y-5.2933
X4.5314Y-5.2933
X4.5631Y-5.2933
X4.6889Y-5.2933
X4.7205Y-5.2933
X4.8464Y-5.2933
X4.878Y-5.2933
X5.122Y-5.2933
X5.1536Y-5.2933
X5.2795Y-5.2933
X5.3111Y-5.2933
X5.4369Y-5.2933
X5.4686Y-5.2933
X5.5944Y-5.2933
X5.626Y-5.2933
X5.7519Y-5.2933
X5.7835Y-5.2933
X5.9094Y-5.2933
X5.941Y-5.2933
X6.0669Y-5.2933
X6.0985Y-5.2933
X6.2243Y-5.2933
X6.256Y-5.2933
X6.6594Y-4.185
X6.6594Y-4.2166
X6.6594Y-4.3031
X6.6594Y-4.3347
X6.6594Y-4.4212
X6.6594Y-4.4528
X6.6594Y-4.5393
X6.6594Y-4.5709
X6.6909Y-4.1259
X6.6909Y-4.1575
X6.6909Y-4.244
X6.6909Y-4.2757
X6.6909Y-4.3621
X6.6909Y-4.3938
X6.6909Y-4.4803
X6.6909Y-4.5119
X6.6909Y-4.5984
X6.6909Y-4.63
T2
X2.9469Y-3.7441
X2.9469Y-3.9606
X2.9469Y-4.1772
X2.9469Y-4.3937
X2.9469Y-5.063
X2.9843Y-3.872
X2.9843Y-4.7047
X3.0118Y-3.8012
X3.0138Y-3.9409
X3.0138Y-4.6339
X3.0138Y-4.7736
X3.0315Y-5.2736
X3.065Y-4.9646
X3.0709Y-5.2933
X3.0709Y-5.3366
X3.0827Y-4.6063
X3.0827Y-4.8051
X3.0846Y-3.7717
X3.0846Y-3.9705
X3.1102Y-5.3366
X3.1516Y-3.9409
X3.1516Y-4.6358
X3.1516Y-4.7736
X3.1535Y-3.8012
X3.1575Y-5.3366
X3.1634Y-3.7441
X3.1831Y-3.872
X3.1831Y-4.7047
X3.1831Y-4.9252
X3.1831Y-5.0039
X3.2067Y-5.2283
X3.2638Y-5.3366
X3.3071Y-5.0709
X3.3071Y-5.1142
X3.3071Y-5.1555
X3.3071Y-5.3366
X3.3209Y-4.9252
X3.3465Y-5.3366
X3.3799Y-3.7441
X3.3858Y-5.2933
X3.439Y-4.5512
X3.4724Y-5.2028
X3.5177Y-5.0709
X3.5177Y-5.1142
X3.5177Y-5.1555
X3.5571Y-3.9803
X3.5571Y-4.0787
X3.5571Y-4.1772
X3.5625Y-5.3371
X3.565Y-5.0118
X3.5679Y-4.4222
X3.5768Y-3.7441
X3.6181Y-4.0217
X3.6437Y-4.9331
X3.6555Y-3.8819
X3.6811Y-5.3366
X3.6909Y-4.0945
X3.7146Y-4.2402
X3.7244Y-4.5531
X3.75Y-3.8937
X3.7736Y-4.439
X3.7933Y-3.7441
X3.7992Y-3.9705
X3.7992Y-5.3366
X3.8051Y-4.2382
X3.8465Y-4.378
X3.8563Y-4.7323
X3.8583Y-4.4724
X3.8583Y-4.5531
X3.878Y-5.3366
X3.8799Y-4.2756
X3.9035Y-4.685
X3.9567Y-5.3366
X4.0354Y-5.3366
X4.0394Y-4.5591
X4.0856Y-4.2648
X4.1004Y-4.3661
X4.1004Y-4.4468
X4.1142Y-5.3366
X4.1594Y-4.2618
X4.1594Y-4.3661
X4.1713Y-4.1594
X4.1929Y-5.3366
X4.2264Y-4.2539
X4.2461Y-4.374
X4.311Y-5.2087
X4.311Y-5.3366
X4.3839Y-4.2913
X4.4291Y-5.3366
X4.5059Y-4.0925
X4.5059Y-4.1545
X4.5079Y-5.3366
X4.5866Y-5.3366
X4.6654Y-5.3366
X4.7441Y-5.3366
X4.8228Y-5.3366
X4.9016Y-5.3366
X4.9803Y-5.3366
X4.9941Y-5.2757
X5.0965Y-5.3366
X5.1752Y-5.3366
X5.2559Y-5.3366
X5.3346Y-5.3366
X5.4134Y-5.3366
X5.4921Y-5.3366
X5.5709Y-5.3366
X5.6437Y-4.6496
X5.6496Y-5.3366
X5.7224Y-4.5709
X5.7283Y-5.3366
X5.8012Y-4.4921
X5.8071Y-5.3366
X5.8228Y-4.376
X5.8799Y-4.4134
X5.8858Y-5.3366
X5.9173Y-4.376
X5.9646Y-5.3366
X5.9783Y-4.0984
X5.998Y-3.7441
X6.0374Y-4.0394
X6.0433Y-5.3366
X6.1161Y-3.7441
X6.122Y-5.3366
X6.2008Y-5.3366
X6.2795Y-4.0787
X6.2894Y-5.1496
X6.2992Y-5.3071
X6.2992Y-5.3473
X6.3314Y-4.0786
X6.3327Y-3.7441
X6.3327Y-4.0295
X6.5492Y-3.7441
X6.5492Y-3.9803
X6.5492Y-4.0394
X6.5492Y-4.0984
X6.5492Y-4.8661
X6.6083Y-4.6496
X6.6083Y-4.7087
X6.7657Y-3.7441
X6.7657Y-4.8661
X6.8209Y-3.8858
X6.8209Y-3.9744
X6.8209Y-4.1122
X6.8209Y-4.1713
X6.8209Y-4.2303
X6.8209Y-4.2894
X6.8209Y-4.3484
X6.8209Y-4.4075
X6.8209Y-4.4665
X6.8209Y-4.5256
X6.8209Y-4.5846
X6.8209Y-4.6437
X6.8209Y-4.7224
X6.872Y-3.8406
X6.9823Y-3.7441
X6.9823Y-4.8661
X7.1988Y-3.7441
X7.1988Y-4.8661
X7.376Y-3.7441
X7.376Y-3.9409
X7.376Y-4.1378
X7.376Y-4.3346
X7.376Y-4.5315
X7.376Y-4.7087
X7.376Y-4.8661
T3
X3.9409Y-3.8327
X3.9409Y-3.9311
X3.9803Y-3.7539
X3.9803Y-4.0098
X4.0197Y-3.8327
X4.0197Y-3.9311
X4.0591Y-3.7539
X4.0591Y-4.0098
X4.0984Y-3.8327
X4.0984Y-3.9311
X4.1378Y-3.7539
X4.1378Y-4.0098
X4.1772Y-3.8327
X4.1772Y-3.9311
X4.2165Y-3.7539
X4.2165Y-4.0098
X4.2559Y-3.8327
X4.2559Y-3.9311
X4.2953Y-3.7539
X4.2953Y-4.0098
X4.3346Y-3.8327
X4.3346Y-3.9311
X4.4528Y-3.7539
X4.4528Y-4.0098
X4.4921Y-3.8327
X4.4921Y-3.9311
X4.5315Y-3.7539
X4.5315Y-4.0098
X4.5709Y-3.8327
X4.5709Y-3.9311
X4.6102Y-3.7539
X4.6102Y-4.0098
X4.6496Y-3.8327
X4.6496Y-3.9311
X4.689Y-3.7539
X4.689Y-4.0098
X4.7283Y-3.8327
X4.7283Y-3.9311
X4.7677Y-3.7539
X4.7677Y-4.0098
X4.8071Y-3.8327
X4.8071Y-3.9311
X4.8465Y-3.7539
X4.8465Y-4.0098
X4.8858Y-3.8327
X4.8858Y-3.9311
X4.9252Y-3.7539
X4.9252Y-4.0098
X4.9646Y-3.8327
X4.9646Y-3.9311
X5.0039Y-3.7539
X5.0039Y-4.0098
X5.0433Y-3.8327
X5.0433Y-3.9311
X5.0827Y-3.7539
X5.0827Y-4.0098
X5.122Y-3.8327
X5.122Y-3.9311
X5.1614Y-3.7539
X5.1614Y-4.0098
X5.2008Y-3.8327
X5.2008Y-3.9311
X5.2402Y-3.7539
X5.2402Y-4.0098
X5.2795Y-3.8327
X5.2795Y-3.9311
X5.3189Y-3.7539
X5.3189Y-4.0098
X5.3583Y-3.8327
X5.3583Y-3.9311
X5.3976Y-3.7539
X5.3976Y-4.0098
X5.437Y-3.8327
X5.437Y-3.9311
X5.4764Y-3.7539
X5.4764Y-4.0098
X5.5157Y-3.8327
X5.5157Y-3.9311
X5.5551Y-3.7539
X5.5551Y-4.0098
X5.5945Y-3.8327
X5.5945Y-3.9311
X5.6339Y-3.7539
X5.6339Y-4.0098
X5.6732Y-3.8327
X5.6732Y-3.9311
X5.7126Y-3.7539
X5.7126Y-4.0098
X5.752Y-3.8327
X5.752Y-3.9311
X5.7913Y-3.7539
X5.7913Y-4.0098
X5.8307Y-3.8327
X5.8307Y-3.9311
X5.8701Y-3.7539
X5.8701Y-4.0098
X5.9094Y-3.8327
X5.9094Y-3.9311
T4
X6.9587Y-3.9331
X6.9587Y-4.0331
X3.3327Y-4.7323
X3.3327Y-4.8323
X3.4327Y-4.7323
X3.4327Y-4.8323
X3.5327Y-4.7323
X3.5327Y-4.8323
X3.6327Y-4.7323
X3.6327Y-4.8323
X3.7327Y-4.7323
X3.7327Y-4.8323
X5.4587Y-4.7323
X5.4587Y-4.8323
X5.4587Y-4.9323
X5.5587Y-4.7323
X5.5587Y-4.8323
X5.5587Y-4.9323
X5.5587Y-5.0323
T5
X3.0827Y-3.872
X3.0827Y-4.7047
T6
X3.4705Y-4.2992
T0
M30
